<?xml version="1.0" encoding="utf-8"?>
<!-- Generator: Adobe Illustrator 16.0.0, SVG Export Plug-In . SVG Version: 6.00 Build 0)  -->
<!DOCTYPE svg PUBLIC "-//W3C//DTD SVG 1.1//EN" "http://www.w3.org/Graphics/SVG/1.1/DTD/svg11.dtd">
<svg version="1.1" id="Calque_1" xmlns="http://www.w3.org/2000/svg" xmlns:xlink="http://www.w3.org/1999/xlink" x="0px" y="0px"
	 width="40px" height="40px" viewBox="0 0 40 40" enable-background="new 0 0 40 40" xml:space="preserve">
<g>
	<path fill="#D31F28" d="M20,17.485c2.629,0,4.769-2.14,4.769-4.769c0-2.63-2.14-4.769-4.769-4.769c-2.63,0-4.77,2.139-4.77,4.769
		C15.23,15.345,17.37,17.485,20,17.485z M20,9.538c1.752,0,3.177,1.425,3.177,3.178c0,1.752-1.425,3.177-3.177,3.177
		s-3.178-1.425-3.178-3.177C16.822,10.963,18.248,9.538,20,9.538z"/>
	<path fill="#D31F28" d="M19.883,36.629l10.266-14.827c3.848-5.129,3.29-13.561-1.192-18.042C26.533,1.335,23.311,0,19.883,0
		s-6.65,1.335-9.074,3.759c-4.482,4.482-5.047,12.903-1.21,18.019L19.883,36.629z M19.883,1.591c3.002,0,5.824,1.169,7.948,3.292
		c3.963,3.962,4.443,11.431,1.026,15.987l-8.975,12.962L10.89,20.847c-3.406-4.541-2.919-12,1.044-15.963
		C14.058,2.761,16.881,1.591,19.883,1.591z"/>
	<path fill="#D31F28" d="M36.617,30.679c-2.146-1.019-5.191-1.799-8.577-2.197c-0.032-0.004-0.065-0.007-0.097-0.007
		c-0.402,0-0.74,0.303-0.787,0.703c-0.051,0.437,0.262,0.833,0.697,0.884c3.974,0.468,6.494,1.33,7.908,1.971
		c1.951,0.885,2.646,1.719,2.646,2.205c0,0.853-1.909,1.911-4.864,2.697c-3.571,0.951-8.381,1.474-13.544,1.474
		s-9.974-0.522-13.545-1.474C3.5,36.148,1.591,35.09,1.591,34.237c0-0.486,0.695-1.32,2.647-2.205
		c1.414-0.641,3.934-1.503,7.908-1.971c0.435-0.051,0.748-0.447,0.697-0.884c-0.048-0.4-0.386-0.703-0.786-0.703
		c-0.032,0-0.065,0.002-0.098,0.006c-3.387,0.399-6.433,1.18-8.577,2.198C1.17,31.729,0,32.961,0,34.237
		c0,1.524,1.823,2.941,5.136,3.991C8.792,39.388,13.932,40,20,40c6.067,0,11.207-0.612,14.864-1.771
		C38.176,37.179,40,35.762,40,34.237C40,32.961,38.83,31.729,36.617,30.679z"/>
</g>
</svg>
