<?xml version="1.0" encoding="utf-8"?>
<!-- Generator: Adobe Illustrator 16.0.0, SVG Export Plug-In . SVG Version: 6.00 Build 0)  -->
<!DOCTYPE svg PUBLIC "-//W3C//DTD SVG 1.1//EN" "http://www.w3.org/Graphics/SVG/1.1/DTD/svg11.dtd">
<svg version="1.1" id="Calque_1" xmlns="http://www.w3.org/2000/svg" xmlns:xlink="http://www.w3.org/1999/xlink" x="0px" y="0px"
	 width="40px" height="40px" viewBox="0 0 40 40" enable-background="new 0 0 40 40" xml:space="preserve">
<g>
	<path fill="#D31F28" d="M29.649,4.785c-1.75,0-3.174,1.424-3.174,3.174c0,0.431,0.351,0.781,0.781,0.781s0.781-0.351,0.781-0.781
		c0-0.889,0.723-1.611,1.611-1.611c0.888,0,1.611,0.723,1.611,1.611c0,0.601-0.331,1.148-0.863,1.427
		c-0.943,0.496-1.529,1.533-1.529,2.705c0,0.431,0.351,0.781,0.781,0.781s0.781-0.351,0.781-0.781c0-0.582,0.272-1.1,0.695-1.322
		c1.047-0.551,1.697-1.627,1.697-2.81C32.823,6.208,31.399,4.785,29.649,4.785z"/>
	<path fill="#D31F28" d="M14.374,24.692l-0.609-0.248l0.486-0.443c1.177-1.072,1.826-2.521,1.826-4.081
		c0-3.069-2.533-5.566-5.646-5.566c-3.113,0-5.646,2.497-5.646,5.566c0,1.558,0.648,3.008,1.826,4.081l0.486,0.443l-0.609,0.248
		C2.546,26.296,0,30.057,0,34.274v4.944C0,39.649,0.351,40,0.781,40H20.08c0.431,0,0.782-0.351,0.782-0.781v-4.944
		C20.861,30.057,18.314,26.296,14.374,24.692z M6.347,19.92c0-2.17,1.87-4.003,4.083-4.003s4.083,1.833,4.083,4.003
		c0,2.169-1.87,4.003-4.083,4.003S6.347,22.09,6.347,19.92z M19.298,38.438H1.562v-4.163c0-4.846,3.978-8.788,8.868-8.788
		c4.89,0,8.868,3.942,8.868,8.788V38.438z"/>
	<path fill="#D31F28" d="M29.649,0c-5.707,0-10.351,4.643-10.351,10.351c0,1.772,0.456,3.521,1.318,5.059l0.09,0.16l-1.368,4.104
		c-0.09,0.271-0.025,0.568,0.168,0.777c0.19,0.207,0.49,0.295,0.762,0.227l4.592-1.147l0.137,0.069
		c1.435,0.721,3.042,1.102,4.651,1.102C35.356,20.701,40,16.058,40,10.351S35.356,0,29.649,0z M29.649,19.139
		c-1.508,0-2.994-0.388-4.299-1.122c-0.173-0.098-0.382-0.125-0.574-0.077l-3.506,0.877l1.034-3.1
		c0.074-0.223,0.044-0.465-0.082-0.665c-0.891-1.404-1.361-3.03-1.361-4.702c0-4.846,3.942-8.788,8.788-8.788
		s8.788,3.942,8.788,8.788C38.438,15.197,34.495,19.139,29.649,19.139z"/>
	<circle fill="#D31F28" cx="29.649" cy="15.136" r="0.781"/>
</g>
</svg>
