<?xml version="1.0" encoding="utf-8"?>
<!-- Generator: Adobe Illustrator 16.0.0, SVG Export Plug-In . SVG Version: 6.00 Build 0)  -->
<!DOCTYPE svg PUBLIC "-//W3C//DTD SVG 1.1//EN" "http://www.w3.org/Graphics/SVG/1.1/DTD/svg11.dtd">
<svg version="1.1" id="Calque_1" xmlns="http://www.w3.org/2000/svg" xmlns:xlink="http://www.w3.org/1999/xlink" x="0px" y="0px"
	 width="50px" height="34px" viewBox="0 0 50 34" enable-background="new 0 0 50 34" xml:space="preserve">
<path fill="#D31F28" d="M40.877,24.924c-1.221,0-2.382,0.479-3.258,1.344c-0.875,0.875-1.363,2.016-1.363,3.238
	c0,1.221,0.479,2.361,1.363,3.236c0.887,0.865,2.037,1.344,3.258,1.344c2.506,0,4.541-2.057,4.541-4.58
	C45.418,26.98,43.383,24.924,40.877,24.924z M40.877,32.051c-1.404,0-2.586-1.16-2.586-2.545s1.182-2.547,2.586-2.547
	c1.385,0,2.506,1.141,2.506,2.547C43.383,30.91,42.262,32.051,40.877,32.051z M42.059,9.662c-0.184-0.173-0.428-0.265-0.682-0.265
	h-5.224c-0.56,0-1.019,0.458-1.019,1.018v8.348c0,0.561,0.459,1.018,1.019,1.018h8.288c0.56,0,1.018-0.457,1.018-1.018v-5.589
	c0-0.285-0.122-0.56-0.336-0.753L42.059,9.662z M43.423,17.747h-6.251v-6.323h3.808l2.443,2.199V17.747z M16.015,24.924
	c-1.222,0-2.382,0.479-3.258,1.344c-0.875,0.875-1.364,2.016-1.364,3.238c0,1.221,0.479,2.361,1.364,3.236
	c0.886,0.865,2.037,1.344,3.258,1.344c2.504,0,4.541-2.057,4.541-4.58C20.556,26.98,18.52,24.924,16.015,24.924z M16.015,32.051
	c-1.405,0-2.586-1.16-2.586-2.545s1.181-2.547,2.586-2.547c1.385,0,2.504,1.141,2.504,2.547C18.52,30.91,17.4,32.051,16.015,32.051z
	 M9.224,26.176H7.178v-2.709c0-0.559-0.458-1.018-1.018-1.018s-1.018,0.459-1.018,1.018v3.727c0,0.561,0.458,1.02,1.018,1.02h3.064
	c0.56,0,1.018-0.459,1.018-1.02C10.242,26.635,9.784,26.176,9.224,26.176z M14.386,20.627c0-0.561-0.458-1.018-1.018-1.018H1.018
	C0.458,19.609,0,20.066,0,20.627s0.458,1.018,1.018,1.018h12.35C13.928,21.645,14.386,21.197,14.386,20.627z M3.085,16.952
	l12.35,0.071c0.56,0,1.018-0.448,1.028-1.008c0.01-0.57-0.448-1.028-1.008-1.028l-12.35-0.071c-0.01,0-0.01,0-0.01,0
	c-0.56,0-1.018,0.448-1.018,1.008C2.067,16.494,2.525,16.952,3.085,16.952z M5.162,12.33h12.35c0.56,0,1.018-0.458,1.018-1.018
	s-0.458-1.018-1.018-1.018H5.162c-0.56,0-1.019,0.458-1.019,1.018S4.602,12.33,5.162,12.33z M49.623,10.955L49.623,10.955
	l-7.289-6.038c-0.184-0.152-0.408-0.234-0.652-0.234h-8.572V1.018c0-0.56-0.458-1.018-1.018-1.018H6.16
	C5.6,0,5.142,0.458,5.142,1.018v7.453c0,0.56,0.458,1.018,1.018,1.018s1.018-0.458,1.018-1.018V2.036h23.906v24.14h-8.349
	c-0.56,0-1.018,0.459-1.018,1.018c0,0.561,0.458,1.02,1.018,1.02h12.431c0.561,0,1.018-0.459,1.018-1.02
	c0-0.559-0.457-1.018-1.018-1.018h-2.047V6.72h8.207l6.638,5.498l-0.071,13.938h-1.059c-0.561,0-1.019,0.457-1.019,1.018
	s0.458,1.018,1.019,1.018H48.9c0.561,0,1.018-0.447,1.018-1.008L50,11.749C49.99,11.444,49.857,11.148,49.623,10.955z"/>
</svg>
