<?xml version="1.0" encoding="utf-8"?>
<!-- Generator: Adobe Illustrator 16.0.0, SVG Export Plug-In . SVG Version: 6.00 Build 0)  -->
<!DOCTYPE svg PUBLIC "-//W3C//DTD SVG 1.1//EN" "http://www.w3.org/Graphics/SVG/1.1/DTD/svg11.dtd">
<svg version="1.1" id="Calque_1" xmlns="http://www.w3.org/2000/svg" xmlns:xlink="http://www.w3.org/1999/xlink" x="0px" y="0px"
	 width="117px" height="92px" viewBox="0 0 117 92" enable-background="new 0 0 117 92" xml:space="preserve">
<g>
</g>
<g>
	<path fill="#192F54" d="M116.279,43.956C97.09,20.078,79.176,9.161,67.514,4.207c-2.91-1.346-5.939-2.379-9.066-3.077
		c-0.865-0.192-1.37-0.288-1.539-0.312C54.072,0.288,51.162,0,48.276,0H46C20.595,0,0,20.595,0,46c0,25.404,20.595,46,46,46h2.277
		c2.886,0,5.795-0.266,8.633-0.818c0.168-0.023,0.673-0.119,1.539-0.312c3.103-0.697,6.156-1.73,9.066-3.077
		c11.662-4.954,29.576-15.847,48.766-39.748C116.76,47.443,117,46.721,117,46S116.76,44.557,116.279,43.956z"/>
	<circle fill="#FFFFFF" cx="47" cy="46" r="43"/>
</g>
<path fill="#546975" d="M72.475,55.446l-9.665-14.06l9.665-14.06c0.262-0.38,0.291-0.872,0.076-1.282
	c-0.216-0.409-0.638-0.663-1.1-0.663H44.09V22.01c0-0.685-0.558-1.242-1.243-1.242H23.791v-1.526c0-0.685-0.557-1.242-1.242-1.242
	c-0.685,0-1.242,0.557-1.242,1.242v53.516c0,0.685,0.558,1.242,1.242,1.242c0.686,0,1.242-0.558,1.242-1.242V50.011h9.257
	c-0.439,0.75-0.669,1.586-0.669,2.448c0,2.72,2.213,4.933,4.933,4.933h34.14c0.463,0,0.884-0.254,1.1-0.663
	C72.767,56.318,72.737,55.827,72.475,55.446z M37.311,50.011h5.536c0.686,0,1.243-0.558,1.243-1.243V27.866h25l-8.812,12.818
	c-0.289,0.421-0.289,0.986,0,1.407l8.812,12.816H37.311c-1.35,0-2.448-1.099-2.448-2.448C34.863,51.108,35.961,50.011,37.311,50.011
	z M41.605,23.252v24.273H23.791V23.252H41.605z"/>
</svg>
