<?xml version="1.0" encoding="utf-8"?>
<!-- Generator: Adobe Illustrator 16.0.0, SVG Export Plug-In . SVG Version: 6.00 Build 0)  -->
<!DOCTYPE svg PUBLIC "-//W3C//DTD SVG 1.1//EN" "http://www.w3.org/Graphics/SVG/1.1/DTD/svg11.dtd">
<svg version="1.1" id="Calque_1" xmlns="http://www.w3.org/2000/svg" xmlns:xlink="http://www.w3.org/1999/xlink" x="0px" y="0px"
	 width="117px" height="92px" viewBox="0 0 117 92" enable-background="new 0 0 117 92" xml:space="preserve">
<g>
	<path fill="#60809E" d="M0.721,48.044C19.91,71.922,37.824,82.839,49.486,87.793c2.91,1.346,5.939,2.379,9.066,3.077
		c0.866,0.192,1.37,0.288,1.539,0.312C62.928,91.712,65.838,92,68.724,92H71c25.405,0,46-20.595,46-46c0-25.404-20.595-46-46-46
		h-2.276c-2.886,0-5.796,0.266-8.633,0.818c-0.169,0.023-0.673,0.119-1.539,0.312c-3.103,0.697-6.156,1.73-9.066,3.077
		C37.824,9.162,19.91,20.055,0.721,43.956C0.24,44.557,0,45.279,0,46S0.24,47.443,0.721,48.044z"/>
	<circle fill="#FFFFFF" cx="70" cy="46" r="43"/>
</g>
<g transform="translate(1 1)">
	<g>
		<g>
			<path fill="#546975" d="M82.066,33.8c0-1.587-1.213-2.8-2.799-2.8H58.733c-1.587,0-2.8,1.213-2.8,2.8V45
				c0,1.587,1.213,2.8,2.8,2.8h20.534c1.586,0,2.799-1.213,2.799-2.8V33.8L82.066,33.8z M80.2,45c0,0.56-0.374,0.933-0.933,0.933
				h-6.161l3.08-3.08c0.374-0.374,0.374-0.934,0-1.307c-0.373-0.374-0.933-0.374-1.307,0l-4.387,4.386h-5.787l3.08-3.08
				c0.374-0.374,0.374-0.934,0-1.307c-0.373-0.374-0.933-0.374-1.307,0l-4.386,4.386h-3.36c-0.561,0-0.933-0.373-0.933-0.933V33.8
				c0-0.561,0.373-0.934,0.933-0.934h20.534c0.559,0,0.933,0.373,0.933,0.934V45L80.2,45z"/>
			<path fill="#546975" d="M95.319,32.96h-2.146c-0.934,0-1.681,0.747-1.681,1.68v1.96h-1.026V19.8c0-1.587-1.214-2.8-2.8-2.8
				H50.333c-1.587,0-2.8,1.213-2.8,2.8v16.8h-1.026v-1.96c0-0.933-0.747-1.68-1.681-1.68H42.68c-0.933,0-1.68,0.747-1.68,1.68v5.88
				c0,0.933,0.747,1.68,1.68,1.68h2.24c0.934,0,1.68-0.747,1.587-1.68v-2.053h1.026v10.266H46.6c-0.56,0-0.934,0.374-0.934,0.934
				v11.2c0,0.016,0.002,0.032,0.002,0.048c0,0.015-0.002,0.03-0.002,0.046v3.641c0,1.586,1.213,2.799,2.8,2.799H49.4v1.868
				c0,2.052,1.68,3.732,3.733,3.732h3.733c2.054,0,3.733-1.681,3.733-3.732v-1.868h16.8v1.868c0,2.052,1.681,3.732,3.734,3.732
				h3.732c2.054,0,3.734-1.681,3.734-3.732v-1.868h0.933c1.587,0,2.8-1.213,2.8-2.799V60.96c0-0.016-0.001-0.032-0.002-0.047
				c0.001-0.015,0.002-0.031,0.002-0.047v-11.2c0-0.56-0.373-0.934-0.934-0.934h-0.933V38.467h1.026v2.053
				c0,0.933,0.746,1.68,1.68,1.68h2.146c0.934,0,1.681-0.747,1.681-1.68v-5.88C97,33.707,96.253,32.96,95.319,32.96z M44.733,40.333
				h-1.867v-5.6h1.867V40.333L44.733,40.333z M58.733,69.268c0,1.025-0.84,1.866-1.867,1.866h-3.733
				c-1.027,0-1.867-0.841-1.867-1.866v-1.868h7.467V69.268z M86.732,69.268c0,1.025-0.839,1.866-1.866,1.866h-3.732
				c-1.027,0-1.866-0.841-1.866-1.866v-1.868h7.465V69.268L86.732,69.268z M90.467,64.601c0,0.56-0.373,0.933-0.934,0.933h-0.933
				H77.399H60.601H49.4h-0.933c-0.56,0-0.934-0.373-0.934-0.933v-2.707h42.934V64.601z M90.467,59.934H47.533v-9.333H52.2h0.934
				v-0.935V29.88c0-0.933,0.747-1.68,1.68-1.68h28.373c0.934,0,1.68,0.747,1.68,1.68v19.786v0.935H85.8h4.667V59.934L90.467,59.934z
				 M86.732,48.732V29.88c0-1.96-1.586-3.546-3.546-3.546h-4.854v-2.8c0-0.56-0.373-0.933-0.934-0.933
				c-0.56,0-0.933,0.373-0.933,0.933v2.8h-2.801v-2.8c0-0.56-0.372-0.933-0.934-0.933c-0.559,0-0.933,0.373-0.933,0.933v2.8H69v-2.8
				c0-0.56-0.374-0.933-0.934-0.933s-0.933,0.373-0.933,0.933v2.8h-2.8v-2.8c0-0.56-0.374-0.933-0.934-0.933
				c-0.561,0-0.933,0.373-0.933,0.933v2.8h-2.801v-2.8c0-0.56-0.373-0.933-0.934-0.933c-0.56,0-0.933,0.373-0.933,0.933v2.8h-2.987
				c-1.96,0-3.547,1.586-3.547,3.546v18.853H49.4V19.8c0-0.561,0.374-0.934,0.934-0.934h37.333c0.56,0,0.934,0.373,0.934,0.934
				v28.932H86.732z M95.134,40.333h-1.867v-5.6h1.867V40.333z"/>
			<path fill="#546975" d="M72.732,53.399c0.562,0,0.934-0.373,0.934-0.933c0-0.561-0.372-0.934-0.934-0.934h-7.465
				c-0.562,0-0.934,0.373-0.934,0.934c0,0.56,0.372,0.933,0.934,0.933H72.732z"/>
			<path fill="#546975" d="M75.533,55.268H62.467c-0.561,0-0.934,0.373-0.934,0.933s0.373,0.934,0.934,0.934h13.066
				c0.561,0,0.934-0.374,0.934-0.934S76.094,55.268,75.533,55.268z"/>
			<path fill="#546975" d="M53.133,52.467c-1.586,0-2.8,1.213-2.8,2.801c0,1.586,1.213,2.799,2.8,2.799s2.8-1.213,2.8-2.799
				C55.933,53.68,54.72,52.467,53.133,52.467z M53.133,56.2c-0.56,0-0.934-0.374-0.934-0.933c0-0.562,0.374-0.934,0.934-0.934
				s0.934,0.372,0.934,0.934C54.067,55.826,53.693,56.2,53.133,56.2z"/>
			<path fill="#546975" d="M82.066,55.268c0,1.586,1.214,2.799,2.8,2.799c1.587,0,2.801-1.213,2.801-2.799
				c0-1.588-1.214-2.801-2.801-2.801C83.28,52.467,82.066,53.68,82.066,55.268z M85.8,55.268c0,0.559-0.373,0.933-0.934,0.933
				c-0.559,0-0.933-0.374-0.933-0.933c0-0.562,0.374-0.934,0.933-0.934C85.427,54.334,85.8,54.706,85.8,55.268z"/>
		</g>
	</g>
</g>
</svg>
