<?xml version="1.0" encoding="utf-8"?>
<!-- Generator: Adobe Illustrator 16.0.0, SVG Export Plug-In . SVG Version: 6.00 Build 0)  -->
<!DOCTYPE svg PUBLIC "-//W3C//DTD SVG 1.1//EN" "http://www.w3.org/Graphics/SVG/1.1/DTD/svg11.dtd">
<svg version="1.1" id="Calque_1" xmlns="http://www.w3.org/2000/svg" xmlns:xlink="http://www.w3.org/1999/xlink" x="0px" y="0px"
	 width="117px" height="92px" viewBox="0 0 117 92" enable-background="new 0 0 117 92" xml:space="preserve">
<g>
</g>
<g>
	<path fill="#192F54" d="M116.279,43.956C97.09,20.078,79.176,9.161,67.514,4.207c-2.91-1.346-5.939-2.379-9.066-3.077
		c-0.865-0.192-1.37-0.288-1.539-0.312C54.072,0.288,51.162,0,48.276,0H46C20.595,0,0,20.595,0,46c0,25.404,20.595,46,46,46h2.277
		c2.886,0,5.795-0.266,8.633-0.818c0.168-0.023,0.673-0.119,1.539-0.312c3.103-0.697,6.156-1.73,9.066-3.077
		c11.662-4.954,29.576-15.847,48.766-39.748C116.76,47.443,117,46.721,117,46S116.76,44.557,116.279,43.956z"/>
	<circle fill="#FFFFFF" cx="47" cy="46" r="43"/>
</g>
<g>
	<g>
		<path fill="#546975" d="M72.783,30.356L47.356,18.082c-0.226-0.109-0.487-0.109-0.713,0L21.217,30.356
			c-0.283,0.137-0.463,0.424-0.463,0.739v29.811c0,0.314,0.18,0.602,0.463,0.738l25.427,12.274C46.756,73.973,46.878,74,47,74
			s0.244-0.027,0.356-0.082l25.427-12.274c0.283-0.137,0.463-0.424,0.463-0.738v-29.81C73.246,30.78,73.066,30.493,72.783,30.356z
			 M47,19.731l23.539,11.364l-6.823,3.294c-0.043-0.033-0.089-0.063-0.139-0.087l-23.38-11.287L47,19.731z M38.345,23.943
			L61.85,35.29l-4.814,2.324L33.54,26.271L38.345,23.943z M62.4,36.846v8.591l-4.497,2.17v-8.59L62.4,36.846z M71.605,60.391
			L47.82,71.872V43.885l5.674-2.739c0.408-0.197,0.579-0.688,0.382-1.095s-0.688-0.58-1.096-0.382L47,42.459l-2.274-1.098
			c-0.408-0.197-0.898-0.026-1.096,0.382c-0.196,0.408-0.025,0.898,0.382,1.095l2.168,1.047v27.987L22.395,60.39V32.402
			l18.112,8.744c0.114,0.055,0.236,0.082,0.356,0.082c0.305,0,0.598-0.171,0.738-0.464c0.197-0.408,0.026-0.898-0.382-1.095
			l-17.759-8.574l8.148-3.934l24.642,11.896c0.004,0.005,0.008,0.01,0.012,0.015v9.844c0,0.282,0.146,0.545,0.384,0.694
			c0.133,0.084,0.284,0.126,0.437,0.126c0.122,0,0.243-0.027,0.356-0.082l6.138-2.962c0.283-0.138,0.464-0.425,0.464-0.739v-9.898
			l7.564-3.652V60.391L71.605,60.391z"/>
	</g>
</g>
<g>
	<g>
		<path fill="#546975" d="M29.164,57.208l-3.731-1.801c-0.408-0.197-0.898-0.025-1.096,0.382c-0.197,0.408-0.025,0.898,0.382,1.096
			l3.731,1.802c0.115,0.056,0.236,0.081,0.356,0.081c0.305,0,0.598-0.17,0.739-0.464C29.743,57.896,29.572,57.406,29.164,57.208z"/>
	</g>
</g>
<g>
	<g>
		<path fill="#546975" d="M32.598,54.973l-7.16-3.456c-0.408-0.197-0.898-0.026-1.096,0.382c-0.196,0.408-0.025,0.898,0.383,1.096
			l7.16,3.457c0.115,0.055,0.236,0.082,0.355,0.082c0.306,0,0.599-0.171,0.739-0.465C33.177,55.66,33.006,55.17,32.598,54.973z"/>
	</g>
</g>
</svg>
