<?xml version="1.0" encoding="utf-8"?>
<!-- Generator: Adobe Illustrator 16.0.0, SVG Export Plug-In . SVG Version: 6.00 Build 0)  -->
<!DOCTYPE svg PUBLIC "-//W3C//DTD SVG 1.1//EN" "http://www.w3.org/Graphics/SVG/1.1/DTD/svg11.dtd">
<svg version="1.1" id="Calque_1" xmlns="http://www.w3.org/2000/svg" xmlns:xlink="http://www.w3.org/1999/xlink" x="0px" y="0px"
	 width="117px" height="92px" viewBox="0 0 117 92" enable-background="new 0 0 117 92" xml:space="preserve">
<g>
	<path fill="#60809E" d="M0.721,48.044C19.91,71.922,37.824,82.839,49.486,87.793c2.91,1.346,5.939,2.379,9.066,3.077
		c0.866,0.192,1.37,0.288,1.539,0.312C62.928,91.712,65.838,92,68.724,92H71c25.405,0,46-20.595,46-46c0-25.404-20.595-46-46-46
		h-2.276c-2.886,0-5.796,0.266-8.633,0.818c-0.169,0.023-0.673,0.119-1.539,0.312c-3.103,0.697-6.156,1.73-9.066,3.077
		C37.824,9.162,19.91,20.055,0.721,43.956C0.24,44.557,0,45.279,0,46S0.24,47.443,0.721,48.044z"/>
	<circle fill="#FFFFFF" cx="70" cy="46" r="43"/>
</g>
<g>
	<path fill="#546975" d="M84.038,47.871c-0.43-5.592-3.023-9.083-5.312-12.165c-2.08-2.8-3.877-5.218-3.877-8.754
		c0-0.371-0.205-0.707-0.535-0.877c-0.324-0.168-0.732-0.137-1.025,0.075c-3.449,2.469-6.328,6.629-7.333,10.602
		c-0.66,2.617-0.778,5.545-0.799,7.612c-2.776-0.836-3.441-5.147-3.448-5.191c-0.045-0.311-0.236-0.584-0.515-0.733
		c-0.28-0.146-0.618-0.151-0.893-0.015c-0.169,0.083-4.17,2.109-4.401,10.127c-0.015,0.26-0.017,0.516-0.017,0.801
		c0,7.785,6.333,14.118,14.117,14.118c7.785,0,14.118-6.333,14.118-14.118c0-0.396-0.027-0.763-0.054-1.118L84.038,47.871z
		 M65.58,56.75c0-0.081,0-0.165,0.006-0.271c0.021-0.747,0.122-1.399,0.303-1.947c0.6,1.004,1.481,1.549,2.521,1.549
		c0.544,0,0.986-0.442,0.986-0.986c0-1.087,0.023-2.342,0.29-3.463c0.206-0.854,0.663-1.774,1.275-2.572
		c0.359,0.985,0.938,1.808,1.499,2.605c0.877,1.246,1.783,2.534,1.941,4.716c0.009,0.126,0.02,0.257,0.02,0.394
		c0,2.604-1.984,4.724-4.422,4.724c-2.437,0-4.42-2.119-4.42-4.724V56.75z M76.395,56.773c0-0.189-0.013-0.364-0.034-0.683
		c-0.189-2.582-1.304-4.166-2.286-5.562c-0.804-1.14-1.497-2.125-1.497-3.494c0-0.377-0.21-0.715-0.546-0.883
		c-0.326-0.164-0.746-0.124-1.035,0.097c-1.519,1.146-2.785,3.079-3.228,4.923c-0.146,0.616-0.245,1.313-0.298,2.119
		c-0.227-0.488-0.308-1.009-0.309-1.017c-0.045-0.316-0.24-0.593-0.523-0.74c-0.279-0.145-0.628-0.146-0.904-0.004
		c-0.207,0.105-2.018,1.138-2.118,4.867c-0.008,0.132-0.009,0.264-0.009,0.377c0,1.205,0.316,2.372,0.922,3.415
		c-4.077-2.062-6.673-6.237-6.673-10.837v-0.027c0-0.216,0-0.439,0.015-0.687c0.121-4.212,1.381-6.452,2.273-7.518
		c0.523,1.636,2.142,5.356,5.994,5.356c0.544,0,0.986-0.442,0.986-0.986c0-2.572,0.057-5.543,0.743-8.255
		c0.738-2.92,2.704-6.081,5.167-8.338c0.523,3.162,2.267,5.508,4.108,7.986c2.232,3.006,4.542,6.115,4.927,11.128l0.029,0.401
		c0.023,0.302,0.046,0.614,0.046,0.939c0,4.6-2.597,8.774-6.673,10.837C76.077,59.146,76.395,57.979,76.395,56.773z"/>
	<path fill="#546975" d="M102.873,43.882L72.118,13.127C71.553,12.562,70.8,12.25,70,12.25c-0.799,0-1.552,0.312-2.117,0.877
		L37.128,43.882C36.562,44.448,36.25,45.2,36.25,46s0.312,1.552,0.877,2.117l30.755,30.756C68.448,79.438,69.2,79.75,70,79.75
		s1.553-0.312,2.118-0.877l30.755-30.756c0.565-0.564,0.876-1.317,0.876-2.117S103.438,44.447,102.873,43.882z M70,78.039
		c-0.342,0-0.664-0.134-0.906-0.376L38.338,46.908c-0.243-0.243-0.376-0.565-0.376-0.908s0.133-0.665,0.376-0.908l30.756-30.755
		c0.242-0.242,0.564-0.376,0.906-0.376c0.344,0,0.666,0.134,0.907,0.376l30.756,30.755c0.501,0.501,0.501,1.314,0,1.815
		L70.907,77.663C70.666,77.905,70.344,78.039,70,78.039z"/>
</g>
</svg>
