<?xml version="1.0" encoding="utf-8"?>
<!-- Generator: Adobe Illustrator 16.0.0, SVG Export Plug-In . SVG Version: 6.00 Build 0)  -->
<!DOCTYPE svg PUBLIC "-//W3C//DTD SVG 1.1//EN" "http://www.w3.org/Graphics/SVG/1.1/DTD/svg11.dtd">
<svg version="1.1" id="Calque_1" xmlns="http://www.w3.org/2000/svg" xmlns:xlink="http://www.w3.org/1999/xlink" x="0px" y="0px"
	 width="117px" height="92px" viewBox="0 0 117 92" enable-background="new 0 0 117 92" xml:space="preserve">
<g>
</g>
<g>
	<path fill="#192F54" d="M116.279,43.956C97.09,20.078,79.176,9.161,67.514,4.207c-2.91-1.346-5.939-2.379-9.066-3.077
		c-0.865-0.192-1.37-0.288-1.539-0.312C54.072,0.288,51.162,0,48.276,0H46C20.595,0,0,20.595,0,46c0,25.404,20.595,46,46,46h2.277
		c2.886,0,5.795-0.266,8.633-0.818c0.168-0.023,0.673-0.119,1.539-0.312c3.103-0.697,6.156-1.73,9.066-3.077
		c11.662-4.954,29.576-15.847,48.766-39.748C116.76,47.443,117,46.721,117,46S116.76,44.557,116.279,43.956z"/>
	<circle fill="#FFFFFF" cx="47" cy="46" r="43"/>
</g>
<g>
	<g>
		<path fill="#546975" d="M74.066,62.8h-0.933V41.333c0-0.515-0.418-0.934-0.934-0.934h-6.533H63.8V18.933
			c0-0.515-0.417-0.933-0.934-0.933H49.8h-5.6H31.134c-0.516,0-0.934,0.418-0.934,0.933V40.4h-8.4c-0.515,0-0.934,0.418-0.934,0.934
			V62.8h-0.933C19.418,62.8,19,63.218,19,63.733v3.733v5.6C19,73.582,19.418,74,19.934,74h5.6H44.2h5.6h18.667h5.6
			C74.583,74,75,73.582,75,73.066v-5.6v-3.733C75,63.218,74.583,62.8,74.066,62.8z M71.267,55.333h-0.934
			c-0.516,0-0.933,0.419-0.933,0.934c0,0.516,0.417,0.934,0.933,0.934h0.934v1.866h-0.934c-0.516,0-0.933,0.419-0.933,0.934
			c0,0.516,0.417,0.934,0.933,0.934h0.934V62.8H66.6v-4.666c0-0.516-0.417-0.934-0.933-0.934h-5.601
			c-0.516,0-0.933,0.418-0.933,0.934V62.8h-4.667V42.267h4.667V48.8c0,0.516,0.417,0.934,0.933,0.934h5.601
			c0.516,0,0.933-0.418,0.933-0.934v-6.533h4.667V55.333z M64.733,62.8H61v-3.733h3.733V62.8z M64.733,47.866H61v-5.6h1.866h1.867
			V47.866z M48.866,19.867v5.6h-3.732v-5.6H48.866z M32.066,19.867h11.2V26.4c0,0.515,0.418,0.934,0.934,0.934h5.6
			c0.517,0,0.934-0.418,0.934-0.934v-6.533h11.2V40.4h-1.867h-6.533h-2.8v-4.667c0-0.515-0.417-0.934-0.934-0.934h-5.6
			c-0.516,0-0.934,0.418-0.934,0.934V40.4h-2.8h-5.601h-2.8V19.867z M48.866,40.4h-3.732v-3.733h3.732V40.4z M35.8,42.267h3.733v5.6
			H35.8V42.267z M22.733,42.267h8.4h2.8V48.8c0,0.516,0.417,0.934,0.933,0.934h5.601c0.515,0,0.934-0.418,0.934-0.934v-6.533h2.8
			h5.6h2.8V62.8H41.4v-4.666c0-0.516-0.419-0.934-0.934-0.934h-5.601c-0.516,0-0.933,0.418-0.933,0.934V62.8h-11.2V42.267z
			 M39.533,62.8H35.8v-3.733h3.733V62.8z M20.866,64.667H21.8h13.066h5.601h13.066h6.533h5.601H72.2h0.934v1.866h-4.667H49.8h-5.6
			H25.533h-4.667V64.667z M20.866,68.4H24.6v3.733h-3.733V68.4z M26.467,68.4h16.8v3.733h-16.8V68.4z M45.134,68.4h3.732v3.733
			h-3.732V68.4z M50.733,68.4h16.8v3.733h-16.8V68.4z M73.134,72.134H69.4V68.4h3.733V72.134z"/>
		<path fill="#546975" d="M26.467,46h2.8c0.516,0,0.934-0.418,0.934-0.934c0-0.515-0.418-0.933-0.934-0.933h-2.8
			c-0.516,0-0.934,0.418-0.934,0.933C25.533,45.582,25.951,46,26.467,46z"/>
		<path fill="#546975" d="M31.134,47.866h-4.667c-0.516,0-0.934,0.419-0.934,0.934c0,0.516,0.418,0.934,0.934,0.934h4.667
			c0.515,0,0.933-0.418,0.933-0.934C32.066,48.285,31.648,47.866,31.134,47.866z"/>
		<path fill="#546975" d="M35.8,23.6h2.8c0.516,0,0.934-0.418,0.934-0.934s-0.418-0.933-0.934-0.933h-2.8
			c-0.515,0-0.934,0.418-0.934,0.933S35.285,23.6,35.8,23.6z"/>
		<path fill="#546975" d="M35.8,27.333h4.667c0.515,0,0.934-0.418,0.934-0.934s-0.419-0.933-0.934-0.933H35.8
			c-0.515,0-0.934,0.418-0.934,0.933S35.285,27.333,35.8,27.333z"/>
	</g>
</g>
</svg>
