<?xml version="1.0" encoding="utf-8"?>
<!-- Generator: Adobe Illustrator 16.0.0, SVG Export Plug-In . SVG Version: 6.00 Build 0)  -->
<!DOCTYPE svg PUBLIC "-//W3C//DTD SVG 1.1//EN" "http://www.w3.org/Graphics/SVG/1.1/DTD/svg11.dtd">
<svg version="1.1" id="Calque_1" xmlns="http://www.w3.org/2000/svg" xmlns:xlink="http://www.w3.org/1999/xlink" x="0px" y="0px"
	 width="117px" height="92px" viewBox="0 0 117 92" enable-background="new 0 0 117 92" xml:space="preserve">
<g>
	<path fill="#60809E" d="M0.721,48.044C19.91,71.922,37.824,82.839,49.486,87.793c2.91,1.346,5.939,2.379,9.066,3.077
		c0.866,0.192,1.37,0.288,1.539,0.312C62.928,91.712,65.838,92,68.724,92H71c25.405,0,46-20.595,46-46c0-25.404-20.595-46-46-46
		h-2.276c-2.886,0-5.796,0.266-8.633,0.818c-0.169,0.023-0.673,0.119-1.539,0.312c-3.103,0.697-6.156,1.73-9.066,3.077
		C37.824,9.162,19.91,20.055,0.721,43.956C0.24,44.557,0,45.279,0,46S0.24,47.443,0.721,48.044z"/>
	<circle fill="#FFFFFF" cx="70" cy="46" r="43"/>
</g>
<g>
	<path fill="#546975" d="M62.45,36.732l0.381-0.197c1.842-0.965,3.099-2.929,4.206-4.663c0.365-0.572,0.71-1.113,1.054-1.583
		l3.029-4.145c0.052-0.072,0.1-0.139,0.144-0.201l0.106-0.151l0.24,0.064c0.239,0.063,0.511,0.124,0.8,0.188
		c1.935,0.431,2.851,0.787,3.076,1.193c0.109,0.24,0.117,0.725,0.094,1.539c-0.032,1.156-0.073,2.595,0.813,3.529
		c0.493,0.517,1.175,0.789,2.028,0.807l0.056,0c2.251,0,3.47-3.055,4.277-5.076c0.162-0.408,0.316-0.792,0.434-1.036
		c0.359-0.735,0.714-1.472,1.069-2.209l0.019-0.039c0.718-1.486,1.448-2.999,2.186-4.473c0.548-1.094,0.815-1.508,1.466-1.511
		c0.523,0,0.956,0.348,1.109,0.886c0.129,0.454,0.056,1.065-0.02,1.711c-0.098,0.829-0.208,1.768,0.092,2.667
		c0.32,0.959,1.116,1.86,1.818,2.655c0.284,0.32,0.543,0.614,0.731,0.864c0.169,0.227,0.344,0.451,0.519,0.675
		c0.758,0.971,1.475,1.889,1.731,2.961c0.029,0.125,0.038,0.247,0.048,0.365c0.034,0.414,0.087,1.038,0.781,1.658
		c0.193,0.173,0.426,0.295,0.691,0.364l0.247,0.064l-0.055,0.25c-0.104,0.46-0.18,1.149,0.351,1.827
		c0.756,0.966,2.389,1.104,3.699,1.215c0.278,0.023,0.564,0.047,0.755,0.076l0.327,0.048l-0.119,0.308
		c-0.031,0.08-0.103,0.235-0.242,0.372c-0.076,0.071-0.225,0.167-0.471,0.32c-0.182,0.112-0.362,0.224-0.524,0.345
		c-0.837,0.627-1.64,1.298-2.416,1.947c-0.38,0.318-0.772,0.647-1.159,0.961c-0.223,0.181-0.367,0.448-0.395,0.734
		s0.062,0.576,0.244,0.797c0.319,0.384,0.688,0.761,1.076,1.16c0.699,0.718,1.49,1.53,1.782,2.211
		c0.109,0.256-0.048,0.689-0.419,1.505c-0.177,0.39-0.358,0.788-0.488,1.215c-0.441,1.461-0.334,2.854,0.312,4.028
		c0.677,1.229,1.93,2.151,3.53,2.596c0.109,0.03,0.229,0.056,0.379,0.085l1.812,0.338l-1.834,0.187
		c-0.436,0.042-0.903,0.063-1.355,0.081c-0.477,0.021-0.967,0.041-1.423,0.09c-0.46,0.05-0.936,0.125-1.396,0.199
		c-0.879,0.142-1.788,0.284-2.548,0.238c-0.646-0.039-1.486-0.387-2.297-0.723c-1.031-0.426-2.193-0.906-3.319-0.906
		c-0.378,0-0.726,0.052-1.063,0.158c-0.659,0.207-1.162,0.481-1.566,0.701c-0.425,0.23-0.679,0.369-0.978,0.369
		c-0.292,0-0.568-0.136-1.009-0.404C84.465,55.725,83.856,55.4,83.2,55.4c-0.216,0-0.428,0.036-0.629,0.105
		c-0.96,0.336-1.301,1.265-1.663,2.249c-0.041,0.11-0.083,0.227-0.128,0.346c-0.082,0.222-0.192,0.469-0.307,0.731l-0.015,0.032
		c-0.529,1.208-1.253,2.858-0.567,4.37c0.119,0.263,0.253,0.484,0.369,0.672l0.13,0.21l-0.2,0.144
		c-0.432,0.312-1.181,0.455-1.906,0.595c-0.504,0.098-1.023,0.197-1.502,0.364c-0.345,0.12-1.393,0.483-1.666,1.453
		c-0.267,0.948,0.361,1.713,0.865,2.329c0.223,0.271,0.447,0.545,0.542,0.756c0.169,0.404-0.084,1.288-0.388,1.61l-0.156,0.167
		l-0.187-0.129c-0.497-0.345-1.025-1.23-1.449-1.943c-0.236-0.397-0.456-0.764-0.685-1.088c-0.121-0.169-0.269-0.344-0.398-0.499
		c-0.278-0.334-0.439-0.539-0.498-0.671l-0.021-0.063c-0.018-0.099-0.011-0.263,0.006-0.528c0.02-0.311,0.044-0.696-0.032-1.085
		c-0.323-1.646-4.383-5.905-6.78-6.279c-0.905-0.142-1.705,0.224-2.113,0.965c-0.336,0.607-0.211,1.465,0.515,3.529l0.363,1.034
		l-0.796-0.754c-0.031-0.03-0.058-0.055-0.081-0.077c-0.351-0.318-0.578-0.812-0.817-1.334c-0.285-0.62-0.608-1.324-1.226-1.766
		c-0.75-0.537-1.709-0.546-2.842-0.038c-0.137,0.062-0.266,0.122-0.389,0.178c-0.538,0.251-0.808,0.377-1.142,0.377
		c-0.158,0-0.324-0.028-0.571-0.096c-0.671-0.186-1.219-0.308-1.713-0.308c-0.945,0-1.65,0.476-2.359,1.59
		c-0.289,0.455-0.345,0.5-0.855,0.693c-0.244,0.092-0.577,0.218-0.993,0.428c-0.939,0.473-1.604,1.188-2.191,1.818l-0.131,0.14
		c-0.246,0.265-0.489,0.561-0.746,0.874c-0.718,0.876-1.609,1.964-2.408,1.964c-0.381-0.008-0.721-0.062-1.081-0.117
		c-0.516-0.082-1.106-0.175-1.794-0.13c-0.274,0.017-0.417,0.008-0.489,0l-0.104-0.013l-0.067-0.08
		c-0.051-0.06-0.126-0.159-0.189-0.244c-0.154-0.203-0.343-0.454-0.614-0.748c-0.376-0.405-0.792-0.706-1.126-0.945
		c-0.258-0.187-0.479-0.351-0.583-0.47l-0.076-0.089l0.014-0.115c0.011-0.09,0.042-0.202,0.09-0.331
		c0.444-1.165,1.123-2.363,1.781-3.521c0.255-0.451,0.51-0.901,0.749-1.343c0.32-0.591,0.625-0.946,0.906-1.057
		c0.277-0.108,0.708-0.032,1.278,0.222c0.964,0.429,1.938,0.898,2.881,1.354c0.485,0.233,0.97,0.468,1.457,0.698
		c0.258,0.122,0.564,0.136,0.832,0.039c0.27-0.098,0.494-0.304,0.613-0.563c0.148-0.318,0.334-0.662,0.532-1.024
		c0.436-0.804,0.93-1.713,1.133-2.635c0.091-0.41,0.068-0.784,0.05-1.086c-0.015-0.243-0.026-0.434,0.018-0.579
		c0.173-0.579,0.722-1.003,1.356-1.494l0.197-0.152c1.006-0.786,2.537-1.939,4.21-2.894c0.519-0.295,0.7-0.957,0.405-1.476
		c-0.192-0.338-0.553-0.547-0.942-0.547c-0.187,0-0.372,0.049-0.535,0.142c-1.795,1.022-3.412,2.241-4.471,3.068l-0.187,0.144
		c-0.773,0.599-1.737,1.342-2.109,2.588c-0.153,0.515-0.125,0.985-0.104,1.329c0.013,0.227,0.021,0.382-0.003,0.489
		c-0.137,0.623-0.541,1.365-0.896,2.021l-0.12,0.222l-0.495-0.238c-0.956-0.462-1.943-0.938-2.943-1.383
		c-2.191-0.976-3.779-0.412-4.967,1.785c-0.228,0.421-0.468,0.846-0.723,1.295c-0.699,1.229-1.421,2.502-1.925,3.826
		c-0.771,2.027,0.533,2.968,1.312,3.53c0.295,0.213,0.574,0.413,0.804,0.662c0.195,0.211,0.335,0.396,0.47,0.576
		c0.583,0.774,1.113,1.301,2.722,1.196c0.441-0.026,0.863,0.038,1.313,0.107c0.402,0.063,0.848,0.133,1.349,0.145l0.076,0.001
		c1.821,0,3.125-1.592,4.078-2.754c0.223-0.272,0.452-0.554,0.655-0.771l0.133-0.144c0.53-0.57,0.988-1.062,1.58-1.36
		c0.312-0.157,0.552-0.246,0.784-0.335c0.761-0.288,1.269-0.536,1.918-1.558c0.154-0.242,0.29-0.422,0.392-0.52l0.08-0.078
		l0.111,0.003c0.216,0.006,0.65,0.118,1.085,0.238c0.42,0.115,0.8,0.172,1.165,0.172c0.797,0,1.399-0.28,2.035-0.575
		c0.117-0.055,0.237-0.109,0.366-0.168c0.266-0.119,0.439-0.162,0.538-0.178l0.156-0.024l0.095,0.126
		c0.121,0.16,0.264,0.46,0.422,0.806c0.291,0.635,0.652,1.42,1.329,2.036c0.061,0.053,0.229,0.22,0.417,0.405l0.051,0.051
		c0.509,0.502,1.277,1.261,1.984,1.894c1.021,0.916,1.749,1.499,2.532,1.249c0.288-0.093,0.527-0.302,0.658-0.574
		c0.251-0.525,0.16-0.805-0.748-3.176c-0.309-0.805-0.884-2.304-1.207-3.344l-0.203-0.654l0.591,0.348
		c0.396,0.234,1.054,0.687,1.931,1.514c1.248,1.175,2.056,2.283,2.209,2.662l0.018,0.073c0.011,0.108,0,0.282-0.012,0.482
		c-0.025,0.398-0.057,0.896,0.114,1.394c0.179,0.53,0.561,0.987,0.897,1.39c0.127,0.151,0.228,0.273,0.295,0.367
		c0.182,0.257,0.381,0.59,0.591,0.942c0.572,0.96,1.221,2.048,2.135,2.655c0.913,0.605,2.027,0.552,2.84-0.139
		c1.133-0.962,1.617-2.933,1.038-4.218c-0.214-0.475-0.548-0.882-0.842-1.24l-0.273-0.343l0.39-0.107
		c0.273-0.073,0.588-0.134,0.921-0.197c0.993-0.191,2.116-0.408,2.966-1.122c1.557-1.308,0.823-2.483,0.472-3.048
		c-0.104-0.163-0.194-0.312-0.268-0.473c-0.287-0.631,0.174-1.68,0.578-2.604c0.128-0.291,0.259-0.587,0.365-0.869
		c0.047-0.125,0.091-0.245,0.134-0.363c0.071-0.191,0.167-0.454,0.254-0.657l0.114-0.265l0.254,0.137
		c0.052,0.026,0.111,0.061,0.181,0.103c0.799,0.485,1.514,0.722,2.186,0.722c0.791,0,1.411-0.337,1.958-0.634
		c0.371-0.204,0.723-0.394,1.185-0.539c0.122-0.039,0.263-0.059,0.417-0.059c0.693,0,1.646,0.394,2.484,0.74
		c0.978,0.405,1.986,0.823,2.994,0.885c0.15,0.01,0.3,0.014,0.45,0.014l0,0c0.861,0,1.732-0.14,2.576-0.274
		c0.467-0.075,0.886-0.143,1.281-0.185c0.386-0.041,0.82-0.06,1.279-0.079c1.012-0.043,2.156-0.09,3.137-0.42
		c0.85-0.287,1.458-0.848,1.669-1.542c0.185-0.607,0.05-1.252-0.383-1.814c-0.604-0.789-1.631-0.946-2.38-1.062
		c-0.225-0.034-0.425-0.065-0.554-0.102c-1.048-0.291-1.813-0.828-2.212-1.553c-0.364-0.66-0.409-1.454-0.135-2.358
		c0.084-0.282,0.227-0.593,0.376-0.923c0.43-0.942,0.954-2.093,0.447-3.276c-0.45-1.049-1.39-2.014-2.218-2.865l-0.226-0.235
		l0.28-0.238c0.771-0.643,1.552-1.296,2.34-1.885c0.077-0.06,0.2-0.136,0.33-0.217l0.03-0.019c0.282-0.175,0.604-0.374,0.85-0.615
		c0.792-0.776,1.13-1.924,0.839-2.855c-0.253-0.817-0.94-1.38-1.886-1.544c-0.277-0.048-0.608-0.076-0.99-0.108
		c-0.469-0.041-1.413-0.12-1.914-0.278l-0.238-0.075l0.062-0.243c0.108-0.416,0.331-1.28-0.386-2.099
		c-0.271-0.313-0.619-0.498-1.062-0.564l-0.206-0.032l-0.018-0.207c-0.016-0.162-0.038-0.359-0.094-0.595
		c-0.365-1.529-1.302-2.73-2.128-3.789l-0.032-0.041c-0.156-0.2-0.312-0.4-0.463-0.603c-0.241-0.321-0.531-0.65-0.84-0.997
		c-0.565-0.641-1.208-1.366-1.389-1.909c-0.146-0.439-0.072-1.064,0.006-1.727c0.094-0.792,0.198-1.686-0.048-2.554
		c-0.416-1.473-1.696-2.462-3.187-2.462c-2.058,0.012-2.837,1.569-3.407,2.708c-0.739,1.477-1.467,2.986-2.172,4.447l-0.026,0.054
		c-0.359,0.748-0.722,1.495-1.084,2.241c-0.15,0.308-0.309,0.703-0.491,1.16c-0.327,0.818-0.722,1.808-1.182,2.589
		c-0.354,0.602-0.633,0.888-0.815,1.022l0.013,0.129l-0.299-0.007c-0.212-0.004-0.383-0.041-0.468-0.102l-0.037-0.033
		c-0.199-0.207-0.256-0.725-0.222-1.976c0.027-0.933,0.055-1.896-0.36-2.644c-0.799-1.436-2.929-1.912-4.485-2.259
		c-0.275-0.061-0.536-0.12-0.732-0.172c-0.601-0.157-1.026-0.257-1.453-0.148c-0.565,0.145-0.846,0.548-1.116,0.937
		c-0.063,0.091-0.135,0.196-0.224,0.316l-3.029,4.145c-0.383,0.525-0.746,1.093-1.131,1.693c-1.01,1.58-2.053,3.213-3.385,3.911
		l-0.387,0.2c-1.682,0.869-2.071,1.257-2.382,3.402l-0.026,0.182c-0.173,1.168-0.433,2.934,0.595,3.975
		c0.31,0.314,0.874,0.688,1.801,0.688c0.168,0,0.343-0.012,0.522-0.036c0.353-0.047,0.634-0.175,0.839-0.282l0.249-0.129
		l0.114,0.256c0.095,0.213,0.216,0.392,0.372,0.548c0.546,0.544,1.276,0.833,2.055,0.808c0.906-0.03,1.795-0.466,2.437-1.197
		c0.8-0.911,1.497-2.537,1.285-3.882c-0.108-0.68-0.341-1.1-0.495-1.378l-0.096-0.176l0.03-0.107
		c0.008-0.022,0.018-0.052,0.03-0.086c0.409-1.142,1.55-2.597,2.139-2.732l0.103-0.023l0.09,0.052
		c0.317,0.185,0.599,0.805,0.977,1.814c0.204,0.549,0.414,1.109,0.697,1.563c0.015,0.024,0.052,0.094,0.079,0.148
		c0.102,0.197,0.287,0.559,0.611,0.834l0.318,0.27l-0.379,0.172c-0.298,0.135-0.518,0.258-0.714,0.398
		c-1.123,0.806-2.006,1.913-2.421,3.037c-0.154,0.415-0.223,0.817-0.283,1.172c-0.066,0.384-0.123,0.715-0.27,0.992
		c-0.302,0.573-0.71,0.982-1.283,1.291c-0.225,0.121-0.479,0.227-0.756,0.315c-0.57,0.179-0.888,0.789-0.708,1.357
		c0.144,0.454,0.558,0.758,1.033,0.758c0.109,0,0.22-0.018,0.325-0.05c0.407-0.129,0.787-0.288,1.132-0.474
		c0.943-0.508,1.675-1.243,2.172-2.188c0.306-0.581,0.407-1.165,0.487-1.634c0.052-0.3,0.096-0.561,0.182-0.79
		c0.26-0.708,0.893-1.483,1.651-2.027c0.146-0.105,0.388-0.208,0.645-0.316c0.738-0.312,1.972-0.835,2.008-2.292
		c0.014-0.489-0.638-2.058-1.146-2.435c-0.248-0.185-0.572-0.26-0.869-0.204l-0.215,0.04l-0.082-0.202
		c-0.059-0.155-0.121-0.318-0.182-0.48c-0.431-1.155-0.962-2.579-2.253-3.105c-0.606-0.247-1.275-0.224-1.929,0.067
		c-1.731,0.771-2.918,3.163-3.197,3.939c-0.366,1.021-0.112,1.62,0.18,2.148c0.117,0.212,0.202,0.365,0.251,0.668
		c0.088,0.558-0.273,1.546-0.773,2.115c-0.241,0.275-0.579,0.452-0.881,0.463c-0.002,0-0.003,0-0.004,0
		c-0.116,0-0.2-0.017-0.275-0.052l-0.11-0.051l-0.033-0.116c-0.084-0.288-0.28-0.96-1.038-1.319
		c-0.27-0.126-0.546-0.191-0.822-0.191c-0.556,0-1.008,0.252-1.277,0.403c-0.083,0.045-0.192,0.105-0.247,0.128l-0.069,0.018
		c-0.151,0.018-0.248,0.016-0.309,0.009l-0.169-0.016l-0.056-0.161c-0.136-0.394-0.031-1.276,0.075-2.002l0.028-0.188
		c0.121-0.843,0.193-1.089,0.264-1.2l0.024-0.031c0.101-0.114,0.363-0.257,0.937-0.553L62.45,36.732z"/>
	<path fill="#546975" d="M62.489,49.356c0.309-0.023,0.57-0.156,0.757-0.375s0.278-0.499,0.255-0.787c-0.042-0.562-0.517-1-1.082-1
		c-0.027,0-0.056,0.001-0.084,0.003c-0.308,0.023-0.568,0.156-0.755,0.375c-0.188,0.219-0.278,0.498-0.256,0.787
		C61.368,48.947,61.887,49.408,62.489,49.356z"/>
	<path fill="#546975" d="M55.683,43.123c-0.287-0.889-0.559-1.728-0.574-2.47c-0.004-0.211,0.085-0.558,0.213-1.024
		c0.303-1.109,0.716-2.621-0.433-3.719c-0.632-0.604-1.687-0.951-2.894-0.951c-0.478,0-0.945,0.058-1.352,0.167
		c-1.043,0.28-1.751,0.896-1.995,1.734c-0.273,0.939-0.107,1.844,0.04,2.641c0.126,0.688,0.236,1.282,0.078,1.803
		c-0.262,0.864-0.659,1.722-1.08,2.63c-0.198,0.427-0.422,0.91-0.622,1.383c-0.027,0.062-0.094,0.202-0.159,0.335
		c-0.706,1.451-1.338,2.959-0.659,4.045c0.195,0.312,0.672,0.836,1.667,0.836c0.317,0,0.658,0.007,1.019,0.014
		c0.405,0.009,0.802,0.018,1.205,0.018c1.958,0,4.125-0.192,5.345-1.621c0.791-0.926,1.045-2.208,0.756-3.806
		C56.115,44.458,55.895,43.779,55.683,43.123z M53.835,47.538c-0.648,0.76-2.25,0.861-3.73,0.861c-0.39,0-0.772-0.007-1.128-0.016
		l-0.852-0.016l0.113-0.342c0.115-0.348,0.321-0.827,0.613-1.426c0.086-0.177,0.155-0.318,0.206-0.44
		c0.184-0.434,0.391-0.881,0.592-1.314c0.433-0.935,0.88-1.902,1.187-2.912c0.311-1.024,0.127-2.022-0.02-2.823
		c-0.113-0.611-0.209-1.14-0.108-1.575l0.021-0.09l0.071-0.057c0.288-0.231,0.854-0.265,1.167-0.265
		c0.491,0,1.121,0.089,1.413,0.338l0.054,0.046l0.024,0.068c0.085,0.244-0.012,0.707-0.221,1.474
		c-0.148,0.543-0.302,1.104-0.291,1.646c0.021,1.06,0.355,2.092,0.677,3.091c0.202,0.624,0.389,1.202,0.485,1.735
		C54.274,46.452,54.183,47.131,53.835,47.538z"/>
</g>
</svg>
