<?xml version="1.0" encoding="utf-8"?>
<!-- Generator: Adobe Illustrator 16.0.0, SVG Export Plug-In . SVG Version: 6.00 Build 0)  -->
<!DOCTYPE svg PUBLIC "-//W3C//DTD SVG 1.1//EN" "http://www.w3.org/Graphics/SVG/1.1/DTD/svg11.dtd">
<svg version="1.1" id="Calque_1" xmlns="http://www.w3.org/2000/svg" xmlns:xlink="http://www.w3.org/1999/xlink" x="0px" y="0px"
	 width="117px" height="92px" viewBox="0 0 117 92" enable-background="new 0 0 117 92" xml:space="preserve">
<g>
</g>
<g>
	<path fill="#192F54" d="M116.279,43.956C97.09,20.078,79.176,9.161,67.514,4.207c-2.91-1.346-5.939-2.379-9.066-3.077
		c-0.865-0.192-1.37-0.288-1.539-0.312C54.072,0.288,51.162,0,48.276,0H46C20.595,0,0,20.595,0,46c0,25.404,20.595,46,46,46h2.277
		c2.886,0,5.795-0.266,8.633-0.818c0.168-0.023,0.673-0.119,1.539-0.312c3.103-0.697,6.156-1.73,9.066-3.077
		c11.662-4.954,29.576-15.847,48.766-39.748C116.76,47.443,117,46.721,117,46S116.76,44.557,116.279,43.956z"/>
	<circle fill="#FFFFFF" cx="47" cy="46" r="43"/>
</g>
<g>
	<g>
		<g>
			<path fill="#546975" d="M71.619,21.056H22.381c-1.864,0-3.381,1.516-3.381,3.38v33.996c0,1.864,1.517,3.381,3.381,3.381h16.872
				v2.46c0,2.255-1.835,4.09-4.09,4.09h-3.719c-0.712,0-1.29,0.578-1.29,1.291s0.578,1.291,1.29,1.291h31.11
				c0.713,0,1.291-0.578,1.291-1.291s-0.578-1.291-1.291-1.291h-3.718c-2.255,0-4.09-1.835-4.09-4.09v-2.46h16.872
				c1.864,0,3.381-1.517,3.381-3.381V24.436C75,22.572,73.483,21.056,71.619,21.056z M40.429,68.362
				c0.88-1.13,1.406-2.549,1.406-4.09v-2.46h10.33v2.46c0,1.541,0.526,2.96,1.406,4.09H40.429z M72.418,58.432
				c0,0.441-0.358,0.8-0.799,0.8H22.381c-0.44,0-0.799-0.358-0.799-0.8v-6.784h50.836V58.432z M72.418,49.065H21.582V24.436
				c0-0.44,0.358-0.799,0.799-0.799h49.238c0.44,0,0.799,0.358,0.799,0.799V49.065L72.418,49.065z"/>
		</g>
	</g>
	<g>
		<g>
			<circle fill="#546975" cx="47" cy="55.439" r="1.394"/>
		</g>
	</g>
	<g>
		<g>
			<path fill="#546975" d="M49.214,29.949c-0.505-0.504-1.321-0.504-1.826,0l-9.123,9.124c-0.505,0.504-0.505,1.322,0,1.826
				c0.252,0.252,0.582,0.378,0.913,0.378c0.33,0,0.66-0.126,0.912-0.378l9.124-9.124C49.718,31.271,49.718,30.454,49.214,29.949z"/>
		</g>
	</g>
	<g>
		<g>
			<path fill="#546975" d="M54.621,35.236c-0.504-0.504-1.321-0.504-1.826,0l-3.634,3.634c-0.505,0.504-0.505,1.322,0,1.826
				c0.252,0.252,0.582,0.378,0.913,0.378c0.33,0,0.66-0.126,0.912-0.378l3.635-3.634C55.125,36.558,55.125,35.741,54.621,35.236z"/>
		</g>
	</g>
</g>
</svg>
