<?xml version="1.0" encoding="utf-8"?>
<!-- Generator: Adobe Illustrator 16.0.0, SVG Export Plug-In . SVG Version: 6.00 Build 0)  -->
<!DOCTYPE svg PUBLIC "-//W3C//DTD SVG 1.1//EN" "http://www.w3.org/Graphics/SVG/1.1/DTD/svg11.dtd">
<svg version="1.1" id="Calque_1" xmlns="http://www.w3.org/2000/svg" xmlns:xlink="http://www.w3.org/1999/xlink" x="0px" y="0px"
	 width="117px" height="92px" viewBox="0 0 117 92" enable-background="new 0 0 117 92" xml:space="preserve">
<g>
	<path fill="#60809E" d="M0.721,48.044C19.91,71.922,37.824,82.839,49.486,87.793c2.91,1.346,5.939,2.379,9.066,3.077
		c0.866,0.192,1.37,0.288,1.539,0.312C62.928,91.712,65.838,92,68.724,92H71c25.405,0,46-20.595,46-46c0-25.404-20.595-46-46-46
		h-2.276c-2.886,0-5.796,0.266-8.633,0.818c-0.169,0.023-0.673,0.119-1.539,0.312c-3.103,0.697-6.156,1.73-9.066,3.077
		C37.824,9.162,19.91,20.055,0.721,43.956C0.24,44.557,0,45.279,0,46S0.24,47.443,0.721,48.044z"/>
	<circle fill="#FFFFFF" cx="70" cy="46" r="43"/>
</g>
<g>
	<g>
		<g>
			<path fill="#546975" d="M90.202,52.5c-1.073-1.109-2.553-1.733-4.097-1.729h-0.294c-1.543-0.003-3.02,0.621-4.092,1.729
				c-1.011,1.038-1.546,2.446-1.481,3.892l0.111,2.568c0.169,2.939,2.629,5.221,5.572,5.169h0.072
				c2.944,0.052,5.404-2.229,5.572-5.169l0.117-2.568C91.747,54.946,91.212,53.538,90.202,52.5z M89.775,56.314l-0.114,2.567
				c-0.13,1.915-1.747,3.389-3.667,3.339h-0.072c-1.919,0.05-3.536-1.424-3.666-3.339l-0.114-2.572
				c-0.037-0.924,0.309-1.823,0.954-2.485c0.713-0.734,1.692-1.147,2.716-1.146h0.294c1.022-0.002,2.003,0.411,2.716,1.146
				C89.468,54.487,89.812,55.389,89.775,56.314z"/>
		</g>
	</g>
	<g>
		<g>
			<path fill="#546975" d="M67.726,31.251c-1.023-0.99-2.647-0.99-3.672,0L53.401,41.904c-0.179,0.179-0.422,0.28-0.676,0.279
				h-9.705c-2.633,0.003-4.768,2.138-4.771,4.772v13.357c0,1.581,1.282,2.862,2.863,2.862c0.325,0,0.647-0.056,0.954-0.163v1.117
				c0,0.526,0.427,0.954,0.954,0.954h11.45c0.526,0,0.954-0.428,0.954-0.954v-15.47c0-0.243,0.091-0.475,0.256-0.651l12.107-13.021
				C68.803,33.938,68.773,32.266,67.726,31.251z M66.426,33.651c-0.004,0.004-0.008,0.007-0.011,0.01L54.28,46.708
				c-0.491,0.53-0.764,1.227-0.764,1.951v14.516h-9.542V48.862c0-0.526-0.427-0.954-0.954-0.954c-0.527,0-0.954,0.428-0.954,0.954
				v11.45c0,0.527-0.427,0.954-0.954,0.954s-0.954-0.427-0.954-0.954V46.955c0-1.582,1.281-2.864,2.862-2.864h9.705
				c0.76,0.002,1.489-0.299,2.025-0.838l10.652-10.652c0.29-0.275,0.746-0.275,1.037,0C66.726,32.895,66.72,33.365,66.426,33.651z"
				/>
		</g>
	</g>
	<g>
		<g>
			<path fill="#546975" d="M69.207,52.5c-1.073-1.108-2.552-1.732-4.093-1.729H64.82c-1.543-0.003-3.021,0.621-4.094,1.729
				c-1.008,1.038-1.544,2.446-1.48,3.892l0.111,2.568c0.17,2.939,2.629,5.221,5.573,5.169h0.072
				c2.944,0.052,5.402-2.229,5.572-5.169l0.112-2.568C70.751,54.946,70.215,53.538,69.207,52.5z M68.783,56.314l-0.115,2.567
				c-0.128,1.915-1.745,3.389-3.665,3.339h-0.072c-1.92,0.05-3.537-1.424-3.666-3.339L61.15,56.31
				c-0.037-0.924,0.308-1.823,0.954-2.485c0.712-0.734,1.692-1.147,2.716-1.146h0.294c1.022-0.002,2.003,0.411,2.715,1.146
				C68.476,54.487,68.821,55.389,68.783,56.314z"/>
		</g>
	</g>
	<g>
		<g>
			<path fill="#546975" d="M69.896,65.083h-9.859c-2.546,0.002-4.609,2.065-4.612,4.611v3.977c0,0.526,0.427,0.954,0.954,0.954
				c0.527,0,0.954-0.428,0.954-0.954v-3.977c0.001-1.491,1.21-2.701,2.704-2.703h9.859c1.492,0.002,2.702,1.212,2.704,2.703v3.977
				c0,0.526,0.427,0.954,0.954,0.954c0.526,0,0.954-0.428,0.954-0.954v-3.977C74.506,67.148,72.443,65.085,69.896,65.083z"/>
		</g>
	</g>
	<g>
		<g>
			<path fill="#546975" d="M90.889,65.083h-9.86c-2.545,0.002-4.609,2.065-4.611,4.611v3.977c0,0.526,0.426,0.954,0.954,0.954
				c0.526,0,0.955-0.428,0.955-0.954v-3.977c0.001-1.491,1.21-2.701,2.702-2.703h9.86c1.492,0.002,2.701,1.212,2.703,2.703v3.977
				c0,0.526,0.428,0.954,0.954,0.954s0.954-0.428,0.954-0.954v-3.977C95.497,67.148,93.435,65.085,90.889,65.083z"/>
		</g>
	</g>
	<g>
		<g>
			<path fill="#546975" d="M92.685,17.375h-33.49c-1.567,0.015-2.826,1.296-2.815,2.863V34.55c0,0.527,0.427,0.954,0.954,0.954
				c0.527,0,0.954-0.427,0.954-0.954V23.1h35.305V46c0.013,0.514-0.394,0.939-0.907,0.955H60.124c-0.526,0-0.954,0.426-0.954,0.953
				s0.428,0.954,0.954,0.954h32.561c1.567-0.015,2.827-1.296,2.815-2.862V20.238C95.512,18.671,94.252,17.39,92.685,17.375z
				 M93.592,21.192H58.287v-0.954c-0.012-0.514,0.394-0.94,0.907-0.955h33.49c0.514,0.015,0.92,0.441,0.907,0.955V21.192z"/>
		</g>
	</g>
	<g>
		<g>
			<path fill="#546975" d="M72.601,25.008H61.15c-0.527,0-0.955,0.427-0.955,0.954c0,0.527,0.428,0.954,0.955,0.954h11.45
				c0.525,0,0.954-0.427,0.954-0.954C73.555,25.436,73.126,25.008,72.601,25.008z"/>
		</g>
	</g>
	<g>
		<g>
			<path fill="#546975" d="M78.326,25.008h-1.909c-0.527,0-0.955,0.427-0.955,0.954c0,0.527,0.428,0.954,0.955,0.954h1.909
				c0.525,0,0.953-0.427,0.953-0.954C79.279,25.436,78.852,25.008,78.326,25.008z"/>
		</g>
	</g>
	<g>
		<g>
			<path fill="#546975" d="M52.985,29.601c-1.073-1.109-2.55-1.733-4.093-1.73h-0.294c-1.542-0.003-3.02,0.621-4.092,1.73
				c-1.009,1.038-1.544,2.446-1.48,3.891l0.111,2.568c0.169,2.939,2.629,5.221,5.572,5.169h0.072
				c2.944,0.052,5.404-2.229,5.573-5.169l0.111-2.568C54.53,32.046,53.994,30.638,52.985,29.601z M52.562,33.415l-0.114,2.566
				c-0.129,1.916-1.747,3.389-3.667,3.339h-0.072c-1.919,0.05-3.536-1.423-3.666-3.339L44.93,33.41
				c-0.038-0.924,0.308-1.823,0.954-2.486c0.712-0.734,1.692-1.147,2.715-1.145h0.294c1.023-0.002,2.003,0.411,2.716,1.145
				C52.255,31.587,52.601,32.488,52.562,33.415z"/>
		</g>
	</g>
</g>
</svg>
