<?xml version="1.0" encoding="utf-8"?>
<!-- Generator: Adobe Illustrator 16.0.0, SVG Export Plug-In . SVG Version: 6.00 Build 0)  -->
<!DOCTYPE svg PUBLIC "-//W3C//DTD SVG 1.1//EN" "http://www.w3.org/Graphics/SVG/1.1/DTD/svg11.dtd">
<svg version="1.1" id="Calque_1" xmlns="http://www.w3.org/2000/svg" xmlns:xlink="http://www.w3.org/1999/xlink" x="0px" y="0px"
	 width="117px" height="92px" viewBox="0 0 117 92" enable-background="new 0 0 117 92" xml:space="preserve">
<g>
</g>
<g>
	<path fill="#192F54" d="M116.279,43.956C97.09,20.078,79.176,9.161,67.514,4.207c-2.91-1.346-5.939-2.379-9.066-3.077
		c-0.865-0.192-1.37-0.288-1.539-0.312C54.072,0.288,51.162,0,48.276,0H46C20.595,0,0,20.595,0,46c0,25.404,20.595,46,46,46h2.277
		c2.886,0,5.795-0.266,8.633-0.818c0.168-0.023,0.673-0.119,1.539-0.312c3.103-0.697,6.156-1.73,9.066-3.077
		c11.662-4.954,29.576-15.847,48.766-39.748C116.76,47.443,117,46.721,117,46S116.76,44.557,116.279,43.956z"/>
	<circle fill="#FFFFFF" cx="47" cy="46" r="43"/>
</g>
<g>
	<g>
		<path fill="#546975" d="M74.881,60.49c-0.47-1.543-1.315-2.944-2.461-4.08c-1.824-1.834-4.306-2.862-6.892-2.854
			c-1.322,0-2.631,0.269-3.846,0.788l-9.588-9.587l12.73-12.634l3.015-0.085c0.364-0.011,0.697-0.208,0.884-0.522l4.314-7.254
			c0.25-0.419,0.185-0.955-0.16-1.3l-3.729-3.729c-0.346-0.344-0.881-0.411-1.3-0.16l-7.254,4.314
			c-0.313,0.186-0.512,0.52-0.522,0.884l-0.085,3.004L47.29,39.952l-8.714-8.713c0.915-5.305-2.644-10.347-7.948-11.262
			c-2.458-0.424-4.985,0.111-7.061,1.494c-0.487,0.33-0.615,0.992-0.286,1.479c0.093,0.137,0.216,0.25,0.36,0.332l4.836,2.695
			c1.065,0.607,1.278,2.418,0.416,3.952c-0.863,1.534-2.514,2.322-3.59,1.726l-4.485-2.429c-0.515-0.284-1.163-0.096-1.446,0.42
			c-0.098,0.177-0.143,0.379-0.13,0.582c0.337,5.373,4.966,9.455,10.339,9.118c1.109-0.07,2.199-0.329,3.222-0.766l7.926,7.926
			l-3.43,3.43l-0.778-0.767c-0.86-0.824-2.218-0.824-3.078,0l-1.065,1.064c-0.812,0.79-0.863,2.077-0.117,2.93L19.657,65.742
			c-0.85,0.813-0.879,2.162-0.065,3.012c0.021,0.023,0.043,0.045,0.065,0.066l3.602,3.601c0.812,0.85,2.162,0.88,3.012,0.066
			c0.022-0.021,0.045-0.044,0.066-0.066L38.95,59.819c0.852,0.746,2.139,0.694,2.929-0.117l1.065-1.065
			c0.85-0.813,0.88-2.162,0.066-3.013c-0.021-0.022-0.044-0.045-0.066-0.065l-0.777-0.778l3.408-3.483L55.908,61.63
			c-0.893,5.309,2.688,10.336,7.996,11.229c3.145,0.528,6.349-0.514,8.58-2.792c0.391-0.438,0.352-1.112-0.088-1.504
			c-0.113-0.101-0.247-0.176-0.392-0.222l-5.998-1.608c-0.588-0.189-1.053-0.643-1.257-1.225c-0.312-0.804-0.349-1.688-0.106-2.515
			c0.447-1.672,1.864-2.865,3.057-2.546l5.935,1.598c0.095,0.014,0.191,0.014,0.287,0c0.589,0.008,1.071-0.463,1.078-1.052
			C75.002,60.818,74.961,60.646,74.881,60.49z M61.768,28.458c0.191-0.193,0.302-0.452,0.309-0.724l0.085-2.844l6.04-3.59
			l2.557,2.557l-3.515,6.029l-2.898,0.106c-0.271,0.007-0.531,0.117-0.724,0.309L50.625,43.286l-1.832-1.832L61.768,28.458z
			 M24.824,70.908l-3.654-3.632l12.666-12.635l1.833,1.832l1.746,1.812L24.824,70.908z M40.409,58.125l-1.406-1.417l-0.544-0.543
			l-4.474-4.506l1.065-1.065l6.392,6.477L40.409,58.125z M40.611,53.268l-1.833-1.832l3.431-3.431l1.832,1.833L40.611,53.268z
			 M68.223,58.392c-0.315-0.085-0.642-0.128-0.969-0.128c-2.323,0.188-4.24,1.892-4.698,4.176c-0.363,1.283-0.293,2.65,0.202,3.889
			c0.457,1.191,1.447,2.099,2.674,2.449l3.963,1.065c-3.613,2.153-8.288,0.97-10.442-2.644c-1.011-1.697-1.323-3.721-0.87-5.644
			c0.08-0.357-0.028-0.732-0.288-0.991L33.783,36.533c-0.341-0.32-0.851-0.381-1.257-0.149c-1.101,0.581-2.325,0.884-3.569,0.884
			c-3.205,0.002-6.067-2.004-7.158-5.018l2.429,1.353c0.566,0.317,1.205,0.482,1.854,0.479c1.973-0.114,3.736-1.266,4.634-3.025
			c1.449-2.589,0.885-5.667-1.246-6.86l-3.1-1.758c3.961-1.415,8.319,0.649,9.734,4.611c0.491,1.375,0.577,2.862,0.246,4.284
			c-0.08,0.357,0.028,0.732,0.288,0.991l24.064,24.054c0.329,0.328,0.834,0.406,1.246,0.191c1.101-0.58,2.325-0.884,3.568-0.885
			c2.698-0.002,5.194,1.425,6.562,3.75L68.223,58.392z"/>
	</g>
</g>
</svg>
