<?xml version="1.0" encoding="utf-8"?>
<!-- Generator: Adobe Illustrator 16.0.0, SVG Export Plug-In . SVG Version: 6.00 Build 0)  -->
<!DOCTYPE svg PUBLIC "-//W3C//DTD SVG 1.1//EN" "http://www.w3.org/Graphics/SVG/1.1/DTD/svg11.dtd">
<svg version="1.1" id="Calque_1" xmlns="http://www.w3.org/2000/svg" xmlns:xlink="http://www.w3.org/1999/xlink" x="0px" y="0px"
	 width="117px" height="92px" viewBox="0 0 117 92" enable-background="new 0 0 117 92" xml:space="preserve">
<g>
	<path fill="#60809E" d="M0.721,48.044C19.91,71.922,37.824,82.839,49.486,87.793c2.91,1.346,5.939,2.379,9.066,3.077
		c0.866,0.192,1.37,0.288,1.539,0.312C62.928,91.712,65.838,92,68.724,92H71c25.405,0,46-20.595,46-46c0-25.404-20.595-46-46-46
		h-2.276c-2.886,0-5.796,0.266-8.633,0.818c-0.169,0.023-0.673,0.119-1.539,0.312c-3.103,0.697-6.156,1.73-9.066,3.077
		C37.824,9.162,19.91,20.055,0.721,43.956C0.24,44.557,0,45.279,0,46S0.24,47.443,0.721,48.044z"/>
	<circle fill="#FFFFFF" cx="70" cy="46" r="43"/>
</g>
<g>
	<path fill="#546975" d="M100.5,46c0-0.001,0-0.002,0-0.003C100.498,29.181,86.817,15.5,70,15.5
		c-16.816,0-30.498,13.681-30.5,30.497V46v0.003C39.502,62.819,53.184,76.5,70,76.5c16.817,0,30.498-13.681,30.5-30.497
		C100.5,46.002,100.5,46.001,100.5,46z M71.191,74.089v-5.685c0-0.659-0.534-1.191-1.191-1.191s-1.191,0.532-1.191,1.191v5.685
		C54.25,73.48,42.52,61.75,41.91,47.191h5.687c0.658,0,1.191-0.533,1.191-1.191s-0.534-1.191-1.191-1.191H41.91
		C42.52,30.25,54.25,18.52,68.809,17.91v5.687c0,0.658,0.534,1.191,1.191,1.191s1.191-0.534,1.191-1.191V17.91
		C85.75,18.52,97.48,30.25,98.089,44.809h-5.685c-0.659,0-1.191,0.533-1.191,1.191s0.532,1.191,1.191,1.191h5.685
		C97.48,61.75,85.75,73.48,71.191,74.089z"/>
	<path fill="#546975" d="M71.088,30.783c-0.192-0.43-0.618-0.706-1.088-0.706s-0.896,0.276-1.088,0.706l-4.195,9.404
		c-0.268,0.601,0.001,1.305,0.603,1.573c0.601,0.268,1.305-0.002,1.573-0.603L70,34.192l10.218,22.904l-9.794-3.723
		c-0.274-0.104-0.574-0.104-0.848,0l-9.794,3.723l3.025-6.786c0.269-0.601-0.001-1.305-0.602-1.573
		c-0.601-0.268-1.306,0.002-1.573,0.604l-4.196,9.403c-0.197,0.44-0.108,0.954,0.222,1.305c0.33,0.35,0.84,0.466,1.29,0.295
		L70,55.76l12.052,4.583c0.137,0.053,0.28,0.078,0.424,0.078c0.321,0,0.637-0.131,0.866-0.373c0.33-0.351,0.417-0.864,0.222-1.305
		L71.088,30.783z"/>
	<path fill="#546975" d="M63.762,46.501c0.691,0,1.253-0.563,1.253-1.253s-0.562-1.252-1.253-1.252
		c-0.688,0-1.252,0.562-1.252,1.252S63.073,46.501,63.762,46.501z"/>
</g>
</svg>
