<?xml version="1.0" encoding="utf-8"?>
<!-- Generator: Adobe Illustrator 16.0.0, SVG Export Plug-In . SVG Version: 6.00 Build 0)  -->
<!DOCTYPE svg PUBLIC "-//W3C//DTD SVG 1.1//EN" "http://www.w3.org/Graphics/SVG/1.1/DTD/svg11.dtd">
<svg version="1.1" id="Calque_1" xmlns="http://www.w3.org/2000/svg" xmlns:xlink="http://www.w3.org/1999/xlink" x="0px" y="0px"
	 width="117px" height="92px" viewBox="0 0 117 92" enable-background="new 0 0 117 92" xml:space="preserve">
<g>
</g>
<g>
	<path fill="#192F54" d="M116.279,43.956C97.09,20.078,79.176,9.161,67.514,4.207c-2.91-1.346-5.939-2.379-9.066-3.077
		c-0.865-0.192-1.37-0.288-1.539-0.312C54.072,0.288,51.162,0,48.276,0H46C20.595,0,0,20.595,0,46c0,25.404,20.595,46,46,46h2.277
		c2.886,0,5.795-0.266,8.633-0.818c0.168-0.023,0.673-0.119,1.539-0.312c3.103-0.697,6.156-1.73,9.066-3.077
		c11.662-4.954,29.576-15.847,48.766-39.748C116.76,47.443,117,46.721,117,46S116.76,44.557,116.279,43.956z"/>
	<circle fill="#FFFFFF" cx="47" cy="46" r="43"/>
</g>
<g>
	<path fill="#546975" d="M72.475,27.188H57.5h-0.875h-2.174v-1.641h7.355c0.453,0,0.82-0.367,0.82-0.82v-1.946
		c0.955-0.339,1.641-1.25,1.641-2.32c0-1.357-1.104-2.461-2.461-2.461s-2.461,1.104-2.461,2.461c0,1.069,0.686,1.981,1.641,2.32
		v1.125h-7.355c-0.453,0-0.82,0.367-0.82,0.82v2.461h-4.99v-4.407c0.955-0.339,1.641-1.25,1.641-2.32C49.461,19.104,48.357,18,47,18
		s-2.461,1.104-2.461,2.461c0,1.069,0.686,1.981,1.641,2.32v4.407h-4.99v-2.461c0-0.453-0.367-0.82-0.82-0.82h-7.355v-1.125
		c0.955-0.339,1.641-1.25,1.641-2.32c0-1.357-1.104-2.461-2.461-2.461s-2.461,1.104-2.461,2.461c0,1.069,0.686,1.981,1.641,2.32
		v1.946c0,0.453,0.367,0.82,0.82,0.82h7.355v1.641H21.525c-1.393,0-2.525,1.133-2.525,2.526v31.589c0,1.393,1.133,2.525,2.525,2.525
		h17.785c-0.317,3.009-2.307,4.767-2.935,5.25h-3.485c-1.357,0-2.461,1.104-2.461,2.461S31.533,74,32.891,74h28.219
		c1.357,0,2.461-1.104,2.461-2.461s-1.104-2.461-2.461-2.461h-3.483c-0.619-0.482-2.616-2.255-2.936-5.25h17.784
		c1.393,0,2.525-1.133,2.525-2.525V29.713C75,28.32,73.867,27.188,72.475,27.188z M61.807,19.641c0.452,0,0.82,0.368,0.82,0.82
		s-0.368,0.82-0.82,0.82s-0.82-0.368-0.82-0.82S61.354,19.641,61.807,19.641z M32.193,21.281c-0.453,0-0.82-0.368-0.82-0.82
		s0.367-0.82,0.82-0.82s0.82,0.368,0.82,0.82S32.646,21.281,32.193,21.281z M54.451,32.109h15.627v26.797H23.922v-1.567v-0.875
		V32.109h15.627v4.4l-3.512,1.678c-0.28,0.134-0.467,0.424-0.467,0.74v13.378c0,0.315,0.182,0.604,0.467,0.74l10.609,5.068
		c0.229,0.108,0.488,0.103,0.707,0l5.965-2.85c0.408-0.195,0.582-0.686,0.387-1.094c-0.195-0.409-0.686-0.582-1.095-0.387
		l-4.79,2.289v-11.56l8.969-4.285v11.56l-1.219,0.582c-0.408,0.195-0.582,0.686-0.387,1.094c0.195,0.409,0.686,0.582,1.094,0.387
		l1.686-0.805c0.285-0.137,0.467-0.425,0.467-0.74V38.928c0-0.313-0.182-0.604-0.467-0.74l-3.512-1.678V32.109z M37.211,40.229
		l8.969,4.285v11.56l-8.969-4.285V40.229z M52.811,28.828v1.641h-4.99v-1.641H52.811z M52.811,32.109v3.617l-4.99-2.385v-1.232
		H52.811z M47,19.641c0.453,0,0.82,0.368,0.82,0.82s-0.367,0.82-0.82,0.82s-0.82-0.368-0.82-0.82S46.547,19.641,47,19.641z
		 M41.189,28.828h4.99v1.641h-4.99V28.828z M41.189,32.109h4.99v1.232l-4.99,2.385V32.109z M47,34.769l8.707,4.16L47,43.087
		l-8.707-4.159L47,34.769z M61.109,70.719c0.452,0,0.82,0.368,0.82,0.82s-0.368,0.82-0.82,0.82H32.891
		c-0.453,0-0.82-0.368-0.82-0.82s0.367-0.82,0.82-0.82H61.109z M55.273,69.078H38.727c0.962-1.123,2.029-2.874,2.233-5.25h12.08
		C53.244,66.204,54.312,67.955,55.273,69.078z M73.359,61.303c0,0.488-0.396,0.885-0.885,0.885H21.525
		c-0.488,0-0.885-0.396-0.885-0.885V29.713c0-0.488,0.396-0.885,0.885-0.885h18.023v1.641H23.102c-0.453,0-0.82,0.367-0.82,0.82
		v25.175v0.875v2.388c0,0.453,0.367,0.82,0.82,0.82h47.797c0.453,0,0.82-0.367,0.82-0.82V31.289c0-0.453-0.367-0.82-0.82-0.82
		H54.451v-1.641h2.174H57.5h14.975c0.488,0,0.885,0.397,0.885,0.885V61.303z"/>
</g>
</svg>
