<?xml version="1.0" encoding="utf-8"?>
<!-- Generator: Adobe Illustrator 16.0.0, SVG Export Plug-In . SVG Version: 6.00 Build 0)  -->
<!DOCTYPE svg PUBLIC "-//W3C//DTD SVG 1.1//EN" "http://www.w3.org/Graphics/SVG/1.1/DTD/svg11.dtd">
<svg version="1.1" id="Calque_1" xmlns="http://www.w3.org/2000/svg" xmlns:xlink="http://www.w3.org/1999/xlink" x="0px" y="0px"
	 width="117px" height="92px" viewBox="0 0 117 92" enable-background="new 0 0 117 92" xml:space="preserve">
<g>
	<path fill="#60809E" d="M0.721,48.044C19.91,71.922,37.824,82.839,49.486,87.793c2.91,1.346,5.939,2.379,9.066,3.077
		c0.866,0.192,1.37,0.288,1.539,0.312C62.928,91.712,65.838,92,68.724,92H71c25.405,0,46-20.595,46-46c0-25.404-20.595-46-46-46
		h-2.276c-2.886,0-5.796,0.266-8.633,0.818c-0.169,0.023-0.673,0.119-1.539,0.312c-3.103,0.697-6.156,1.73-9.066,3.077
		C37.824,9.162,19.91,20.055,0.721,43.956C0.24,44.557,0,45.279,0,46S0.24,47.443,0.721,48.044z"/>
	<circle fill="#FFFFFF" cx="70" cy="46" r="43"/>
</g>
<g>
	<g>
		<g>
			<path fill="#546975" d="M87.041,49.261v-23.91c-0.003-2.999-2.435-5.43-5.434-5.434H57.698c-0.288,0-0.564,0.114-0.769,0.318
				l-8.693,8.694c-0.204,0.204-0.319,0.48-0.319,0.769v36.951c0.004,2.999,2.435,5.429,5.435,5.434h28.256
				c2.999-0.005,5.431-2.435,5.434-5.434v-2.174h-2.173v2.174c0,1.801-1.46,3.26-3.261,3.26H53.352c-1.801,0-3.261-1.459-3.261-3.26
				V30.148l8.057-8.058h23.46c1.801,0,3.261,1.46,3.261,3.26v23.91H87.041z"/>
		</g>
	</g>
	<g>
		<g>
			<path fill="#546975" d="M56.611,21.004v6.521c0,0.601-0.486,1.087-1.087,1.087h-2.173v2.174h2.173c1.801,0,3.26-1.46,3.26-3.261
				v-6.521H56.611z"/>
		</g>
	</g>
	<g>
		<g>
			<path fill="#546975" d="M99.765,46.067l-3.009-3.009c-0.425-0.425-1.113-0.425-1.537,0L78.666,59.61
				c-0.425,0.424-0.425,1.113,0,1.537l3.009,3.009c0.204,0.203,0.48,0.319,0.769,0.319s0.564-0.116,0.769-0.319l16.553-16.552
				C100.188,47.18,100.188,46.491,99.765,46.067z M82.443,61.851l-1.473-1.472l15.017-15.016l1.472,1.473L82.443,61.851z"/>
		</g>
	</g>
	<g>
		<g>
			<path fill="#546975" d="M80.521,62.302v-2.174h-2.174v3.26c0,0.601,0.487,1.088,1.087,1.088h3.261v-2.174H80.521z"/>
		</g>
	</g>
	<g>
		<g>
			<path fill="#546975" d="M79.434,24.264h-2.173v2.174h2.173c0.601,0,1.087,0.486,1.087,1.087v2.174h2.174v-2.174
				C82.694,25.725,81.234,24.264,79.434,24.264z"/>
		</g>
	</g>
	<g>
		<g>
			<path fill="#546975" d="M72.145,41.05l-5.752,5.752L63.9,44.31l-1.537,1.537l3.261,3.26c0.204,0.203,0.48,0.317,0.769,0.317
				s0.564-0.114,0.768-0.317l6.521-6.521L72.145,41.05z"/>
		</g>
	</g>
	<g>
		<g>
			<path fill="#546975" d="M69.653,62.302c-0.601,0-1.088-0.487-1.088-1.088v-2.172h-2.173v2.172c0,1.803,1.459,3.262,3.261,3.262
				h6.521v-2.174H69.653z"/>
		</g>
	</g>
	<g>
		<g>
			<rect x="72.913" y="24.264" fill="#546975" width="2.174" height="2.174"/>
		</g>
	</g>
</g>
</svg>
