<?xml version="1.0" encoding="utf-8"?>
<!-- Generator: Adobe Illustrator 16.0.0, SVG Export Plug-In . SVG Version: 6.00 Build 0)  -->
<!DOCTYPE svg PUBLIC "-//W3C//DTD SVG 1.1//EN" "http://www.w3.org/Graphics/SVG/1.1/DTD/svg11.dtd">
<svg version="1.1" id="Calque_1" xmlns="http://www.w3.org/2000/svg" xmlns:xlink="http://www.w3.org/1999/xlink" x="0px" y="0px"
	 width="134px" height="134px" viewBox="0 0 134 134" enable-background="new 0 0 134 134" xml:space="preserve">
<circle fill="#E9EEF3" cx="67" cy="67" r="67"/>
<g>
	<g>
		<path fill="#A2C0D7" d="M22,89.5h15l3.75,5.625h13.125v-11.25h-33.75V89.5h-7.5v5.625h5.625L22,89.5z"/>
		<path fill="#A2C0D7" d="M115.75,83.875H80.125v11.25H93.25L97,89.5h15l3.75,5.625h5.625V89.5h-5.625V83.875z"/>
		<path fill="#A2C0D7" d="M98.875,57.625h-15v26.25h37.5V59.5c0-0.637-0.019-1.256-0.075-1.875H98.875z"/>
		<path fill="#A2C0D7" d="M64.375,83.875h-10.5v17.93h26.25V85.155c0-0.435-0.013-0.857-0.053-1.28H64.375z"/>
		<path fill="#A2C0D7" d="M93.25,106.375c0,6.213,5.037,11.25,11.25,11.25s11.25-5.037,11.25-11.25s-5.037-11.25-11.25-11.25
			S93.25,100.162,93.25,106.375z M108.25,106.375c0,2.071-1.679,3.75-3.75,3.75s-3.75-1.679-3.75-3.75s1.679-3.75,3.75-3.75
			S108.25,104.304,108.25,106.375z"/>
		<path fill="#A2C0D7" d="M18.25,106.375c0,6.213,5.037,11.25,11.25,11.25s11.25-5.037,11.25-11.25s-5.037-11.25-11.25-11.25
			S18.25,100.162,18.25,106.375z M33.25,106.375c0,2.071-1.679,3.75-3.75,3.75c-2.071,0-3.75-1.679-3.75-3.75s1.679-3.75,3.75-3.75
			C31.571,102.625,33.25,104.304,33.25,106.375z"/>
		<path fill="#A2C0D7" d="M78.25,72.625v11.25h5.625v-60L82,22h-3.75V72.625z"/>
		<path fill="#A2C0D7" d="M87.455,55.648c1.246-0.389,2.082-1.56,2.045-2.867V41.843c0.037-1.307-0.799-2.478-2.045-2.867
			c-1.23-0.179-2.485,0.041-3.58,0.63v15.412C84.97,55.607,86.225,55.828,87.455,55.648z"/>
	</g>
	<path fill="#192E53" d="M123.17,57.494c-1.084-14.699-13.307-26.082-28.045-26.119H85.75v-7.5c0-0.497-0.197-0.974-0.549-1.326
		l-1.875-1.875c-0.352-0.352-0.829-0.549-1.326-0.549h-1.875v-3.75c0-1.036-0.84-1.875-1.875-1.875H14.5
		c-1.036,0-1.875,0.839-1.875,1.875V82c-1.036,0-1.875,0.84-1.875,1.875v11.25c0,1.035,0.839,1.875,1.875,1.875h5.625
		c0.627,0,1.212-0.313,1.56-0.834l3.193-4.791h12.993l3.188,4.791c0.349,0.522,0.937,0.836,1.565,0.834H52v1.875
		c0,3.106,2.519,5.625,5.625,5.625h18.75c3.106,0,5.625-2.519,5.625-5.625V97h11.25c0.627,0,1.212-0.313,1.561-0.834l3.193-4.791
		h12.992l3.188,4.791c0.349,0.522,0.937,0.836,1.565,0.834h5.625c1.035,0,1.875-0.84,1.875-1.875V59.5
		C123.25,58.804,123.229,58.129,123.17,57.494z M119.5,87.625h-1.875V85.75h1.875V87.625z M87.625,52.782
		c0.028,0.454-0.233,0.877-0.652,1.054c-0.413,0.068-0.837,0.017-1.223-0.148v-12.75c0.386-0.164,0.81-0.213,1.223-0.143
		c0.419,0.177,0.681,0.6,0.652,1.054V52.782z M85.75,59.5h33.75V82H85.75V59.5z M104.58,53.371
		c-0.229,0.862,0.182,1.766,0.982,2.162c0.799,0.396,1.767,0.173,2.312-0.532l1.112-1.483l2.236,2.233H100.75h-9.375h-0.959
		c0.629-0.862,0.964-1.901,0.959-2.968V41.843c0.048-2.163-1.365-4.086-3.442-4.688c-0.714-0.181-1.459-0.203-2.183-0.066v-1.965
		h9.375c11.996,0.038,22.191,8.776,24.063,20.625h-2.662l-5.266-5.265L113.5,47.5c0.621-0.828,0.454-2.004-0.375-2.625
		c-0.828-0.622-2.004-0.454-2.625,0.375l-3.51,4.688L104.58,53.371z M81.224,23.875L82,24.651V82h-1.875V23.875H81.224z
		 M16.375,18.25h60V82h-60V18.25z M14.5,85.75h3.75v1.875H14.5V85.75z M17.247,93.25H14.5v-1.875h3.997L17.247,93.25z M41.754,93.25
		l-3.188-4.791c-0.349-0.522-0.937-0.836-1.565-0.834H22V85.75h30v7.5H41.754z M78.25,98.875c0,1.035-0.84,1.875-1.875,1.875h-18.75
		c-1.035,0-1.875-0.84-1.875-1.875V85.75h22.5V98.875z M112,87.625H97c-0.627,0-1.212,0.313-1.561,0.834l-3.193,4.791H82v-7.5
		h31.875v3.188l-0.314-0.472C113.213,87.941,112.628,87.626,112,87.625z M116.754,93.25l-1.289-1.933
		c0.094,0.026,0.189,0.046,0.285,0.058h3.75v1.875H116.754z"/>
	<path fill="#192E53" d="M104.5,93.25c-7.249,0-13.125,5.876-13.125,13.125S97.251,119.5,104.5,119.5s13.125-5.876,13.125-13.125
		C117.617,99.13,111.745,93.258,104.5,93.25z M104.5,115.75c-5.178,0-9.375-4.197-9.375-9.375S99.322,97,104.5,97
		s9.375,4.197,9.375,9.375C113.868,111.551,109.676,115.743,104.5,115.75z"/>
	<path fill="#192E53" d="M29.5,93.25c-7.249,0-13.125,5.876-13.125,13.125S22.251,119.5,29.5,119.5s13.125-5.876,13.125-13.125
		C42.617,99.13,36.745,93.258,29.5,93.25z M29.5,115.75c-5.177,0-9.375-4.197-9.375-9.375S24.323,97,29.5,97
		c5.178,0,9.375,4.197,9.375,9.375C38.868,111.551,34.676,115.743,29.5,115.75z"/>
	<path fill="#192E53" d="M29.5,100.75c-3.106,0-5.625,2.519-5.625,5.625S26.394,112,29.5,112s5.625-2.519,5.625-5.625
		S32.606,100.75,29.5,100.75z M29.5,108.25c-1.035,0-1.875-0.84-1.875-1.875s0.84-1.875,1.875-1.875s1.875,0.84,1.875,1.875
		S30.535,108.25,29.5,108.25z"/>
	<path fill="#192E53" d="M104.5,100.75c-3.106,0-5.625,2.519-5.625,5.625S101.394,112,104.5,112s5.625-2.519,5.625-5.625
		S107.606,100.75,104.5,100.75z M104.5,108.25c-1.035,0-1.875-0.84-1.875-1.875s0.84-1.875,1.875-1.875s1.875,0.84,1.875,1.875
		S105.535,108.25,104.5,108.25z"/>
	<path fill="#192E53" d="M87.625,63.25h7.5V67h-7.5V63.25z"/>
	<path fill="#192E53" d="M20.125,22h7.5v3.75h-7.5V22z"/>
	<path fill="#192E53" d="M20.125,27.625h7.5v3.75h-7.5V27.625z"/>
</g>
</svg>
