<?xml version="1.0" encoding="utf-8"?>
<!-- Generator: Adobe Illustrator 16.0.0, SVG Export Plug-In . SVG Version: 6.00 Build 0)  -->
<!DOCTYPE svg PUBLIC "-//W3C//DTD SVG 1.1//EN" "http://www.w3.org/Graphics/SVG/1.1/DTD/svg11.dtd">
<svg version="1.1" id="Calque_1" xmlns="http://www.w3.org/2000/svg" xmlns:xlink="http://www.w3.org/1999/xlink" x="0px" y="0px"
	 width="100px" height="65px" viewBox="0 0 100 65" enable-background="new 0 0 100 65" xml:space="preserve">
<path fill="#193052" d="M59.525,45.178V44.02c0.387-0.258,0.645-0.515,1.03-0.9c2.445-2.703,3.99-6.179,4.505-9.783
	c2.188-0.386,4.247-1.544,5.534-3.346c1.931-2.574,2.06-6.436,0.516-11.198c-0.129-0.257-0.258-0.515-0.516-0.644l-0.644-0.515
	c0.129-4.248-1.415-8.495-4.118-11.713C62.357,2.06,57.08,0,50.001,0l0,0c-7.08,0-12.356,2.06-15.832,5.792
	c-2.832,3.218-4.247,7.465-4.119,11.713l-0.772,0.515c-0.257,0.129-0.386,0.386-0.515,0.644c-1.544,4.763-1.416,8.495,0.515,11.198
	c1.416,1.802,3.347,2.96,5.535,3.347c0.386,3.604,1.931,7.079,4.505,9.782c0.257,0.257,0.644,0.644,1.029,0.9v1.158
	c-4.891,0.902-24.584,5.535-24.327,18.664c0,0.772,0.515,1.287,1.287,1.287h65.387c0.772,0,1.287-0.515,1.287-1.287
	C84.11,50.713,64.417,46.079,59.525,45.178z M31.208,28.446c-1.287-1.931-1.416-4.763-0.257-8.495l0.901-0.644
	c0.386-0.258,0.644-0.772,0.515-1.159c-0.257-3.861,1.03-7.594,3.475-10.554c2.96-3.347,7.594-5.02,13.901-5.02
	c6.308,0,10.941,1.673,13.901,5.02c2.445,2.96,3.732,6.693,3.476,10.554c0,0.515,0.129,0.901,0.515,1.159l0.901,0.644
	c1.158,3.732,1.029,6.564-0.258,8.495c-0.644,0.901-1.674,1.673-2.703,1.93c1.545-1.802,2.316-4.119,2.06-6.436
	c-0.258-1.416-1.03-2.703-2.06-3.604C65.061,7.465,56.051,6.049,52.061,6.049c-0.772,0-1.673,0-2.446,0.129
	c-0.772-0.129-1.673-0.129-2.446-0.129c-3.861,0-12.871,1.416-13.515,14.287c-1.159,0.901-1.802,2.188-2.06,3.604
	c-0.257,2.317,0.515,4.634,2.06,6.436C32.753,30.119,31.724,29.347,31.208,28.446L31.208,28.446z M63.13,19.822
	c-5.406,0.257-10.812-1.03-15.446-3.861c-0.515-0.386-1.287-0.257-1.673,0.129c-2.574,2.703-7.208,3.346-9.525,3.604
	c0.644-9.138,6.178-11.069,10.812-11.069c0.772,0,1.416,0,2.188,0.129c0.129,0,0.386,0,0.515,0c0.772-0.129,1.416-0.129,2.188-0.129
	C56.823,8.624,62.357,10.683,63.13,19.822L63.13,19.822z M37.001,30.634c0-0.258-0.129-0.644-0.386-0.901
	c-1.802-2.06-2.574-3.862-2.317-5.406c0.129-0.901,0.515-1.673,1.159-2.188c1.673,0,7.723-0.386,11.584-3.604
	c4.376,2.445,9.267,3.861,14.288,3.861c0.9,0,1.673,0,2.702-0.129c0.644,0.515,1.03,1.287,1.159,2.06
	c0.257,1.544-0.644,3.347-2.317,5.406c-0.257,0.257-0.386,0.515-0.386,0.901c0,0,0,0.257,0,0.644l-7.466,3.99
	c-1.544-1.416-3.861-1.287-5.277,0.129c-1.416,1.544-1.287,3.861,0.129,5.277c1.545,1.415,3.861,1.287,5.277-0.129
	c0.644-0.645,1.029-1.545,1.029-2.574c0-0.129,0-0.258,0-0.387l5.922-3.218c-0.516,2.574-1.674,4.892-3.476,6.821
	c-2.317,2.188-5.406,3.348-8.496,3.219h-0.644c-3.218,0.129-6.178-1.03-8.495-3.219C36.872,37.326,37.001,30.763,37.001,30.634
	L37.001,30.634z M53.604,38.1c0,0.643-0.515,1.158-1.158,1.158s-1.158-0.516-1.158-1.158c0-0.645,0.515-1.159,1.158-1.159l0,0
	C53.09,36.94,53.604,37.455,53.604,38.1z M42.536,50.069v-4.376c2.188,1.029,4.505,1.545,6.822,1.416h0.644
	c2.316,0,4.634-0.387,6.822-1.416v4.376c0,1.287-2.832,2.96-7.208,2.96S42.536,51.228,42.536,50.069L42.536,50.069z M51.031,55.604
	c4.891-0.386,8.494-2.574,8.494-5.534v-2.317c4.892,1.03,20.595,5.021,21.624,14.803H51.031h-2.575H18.337
	C19.367,52.9,35.07,48.91,39.961,47.752v2.317c0,2.96,3.604,5.148,8.495,5.534H51.031z"/>
</svg>
