<?xml version="1.0" encoding="utf-8"?>
<!-- Generator: Adobe Illustrator 16.0.0, SVG Export Plug-In . SVG Version: 6.00 Build 0)  -->
<!DOCTYPE svg PUBLIC "-//W3C//DTD SVG 1.1//EN" "http://www.w3.org/Graphics/SVG/1.1/DTD/svg11.dtd">
<svg version="1.1" id="Calque_1" xmlns="http://www.w3.org/2000/svg" xmlns:xlink="http://www.w3.org/1999/xlink" x="0px" y="0px"
	 width="100px" height="65px" viewBox="0 0 100 65" enable-background="new 0 0 100 65" xml:space="preserve">
<g>
	<path fill="#193052" d="M49.236,13.008c-0.097-0.324-0.198-0.647-0.313-0.967C46.325,4.817,39.474,0,31.798,0
		c-7.676,0-14.527,4.817-17.124,12.041s-0.383,15.3,5.536,20.188c-4.387,0.905-6.609,2.305-6.609,4.178v23.395
		c0,5.053,16.334,5.199,18.197,5.199v-0.008c0.247,0,0.759,0,1.445-0.02c0.828-0.017,1.667-0.041,2.518-0.086
		c0.288-0.014,0.558-0.029,0.78-0.053c3.361-0.139,6.689-0.71,9.903-1.699l0.066-0.024c0.282-0.104,0.552-0.214,0.809-0.331
		c0.026-0.012,0.056-0.021,0.082-0.034L47.406,65H86.4V13.008H49.236z M16.2,18.208c0-8.614,6.983-15.597,15.598-15.597
		s15.598,6.983,15.598,15.597c0,8.615-6.984,15.598-15.598,15.598C23.188,33.797,16.209,26.818,16.2,18.208z M47.396,27.567v5.884
		c-1.287-0.555-2.632-0.966-4.01-1.223C45.009,30.887,46.352,29.305,47.396,27.567z M23.396,34.326
		c2.591,1.363,5.474,2.077,8.402,2.08c2.927,0,5.811-0.711,8.402-2.072c4.742,0.65,6.645,1.626,7.112,2.08
		c-0.012,0.011-0.017,0.023-0.029,0.035c-0.014,0.014-0.066,0.057-0.102,0.085s-0.097,0.077-0.156,0.116s-0.096,0.06-0.146,0.09
		c-0.07,0.039-0.143,0.08-0.225,0.121l-0.192,0.094c-0.089,0.041-0.185,0.082-0.285,0.129c-0.077,0.031-0.158,0.064-0.242,0.096
		c-0.109,0.041-0.224,0.084-0.343,0.129L45.3,37.407c-0.129,0.041-0.259,0.083-0.402,0.13l-0.337,0.098
		c-0.146,0.039-0.302,0.08-0.459,0.12c-0.13,0.032-0.26,0.065-0.39,0.097c-0.165,0.039-0.337,0.078-0.511,0.116
		c-0.143,0.031-0.287,0.063-0.434,0.093c-0.184,0.037-0.375,0.074-0.566,0.11l-0.481,0.087c-0.2,0.035-0.411,0.068-0.621,0.104
		l-0.52,0.078c-0.221,0.033-0.454,0.062-0.685,0.094l-0.554,0.072c-0.241,0.028-0.493,0.053-0.742,0.08
		c-0.196,0.021-0.39,0.041-0.589,0.061c-0.259,0.025-0.541,0.047-0.816,0.068c-0.201,0.016-0.398,0.033-0.605,0.048
		c-0.299,0.021-0.611,0.038-0.922,0.055c-0.197,0.011-0.39,0.023-0.587,0.032c-0.355,0.018-0.726,0.027-1.094,0.039
		c-0.171,0-0.333,0.013-0.506,0.018c-0.544,0-1.104,0-1.681,0s-1.14-0.008-1.69-0.02c-0.173,0-0.335-0.012-0.505-0.018
		c-0.37-0.012-0.74-0.021-1.095-0.039c-0.201-0.01-0.39-0.021-0.587-0.031c-0.311-0.018-0.623-0.035-0.921-0.055
		c-0.208-0.016-0.405-0.033-0.607-0.049c-0.274-0.022-0.551-0.043-0.815-0.068c-0.201-0.019-0.39-0.041-0.589-0.061
		c-0.25-0.027-0.501-0.053-0.742-0.08l-0.554-0.072c-0.231-0.031-0.464-0.061-0.685-0.094l-0.52-0.079
		c-0.211-0.033-0.421-0.067-0.622-0.103l-0.481-0.087c-0.191-0.036-0.382-0.073-0.565-0.11c-0.148-0.029-0.291-0.061-0.434-0.092
		c-0.174-0.039-0.345-0.077-0.511-0.117c-0.129-0.031-0.259-0.064-0.39-0.096c-0.157-0.041-0.312-0.081-0.458-0.122l-0.336-0.097
		c-0.139-0.042-0.274-0.084-0.402-0.131c-0.102-0.031-0.199-0.064-0.292-0.098c-0.121-0.041-0.234-0.082-0.342-0.129l-0.243-0.097
		c-0.101-0.043-0.196-0.085-0.286-0.13l-0.192-0.092c-0.082-0.043-0.154-0.082-0.224-0.123c-0.051-0.029-0.103-0.06-0.147-0.09
		c-0.044-0.029-0.108-0.078-0.156-0.115c-0.048-0.038-0.072-0.058-0.101-0.085c-0.028-0.027-0.009-0.011-0.021-0.022
		C16.751,35.959,18.654,34.977,23.396,34.326z M16.2,39.357l0.026,0.012c0.26,0.115,0.526,0.225,0.806,0.33l0.209,0.077
		c0.295,0.104,0.599,0.206,0.917,0.299h0.011c0.316,0.092,0.65,0.179,0.979,0.261l0.233,0.057c0.684,0.161,1.395,0.3,2.117,0.42
		l0.235,0.04c0.73,0.118,1.469,0.217,2.198,0.302l0.223,0.024c0.729,0.081,1.444,0.146,2.13,0.198l0.214,0.018
		c0.681,0.049,1.327,0.088,1.924,0.117l0.17,0.008c0.589,0.027,1.121,0.045,1.583,0.059h0.136c0.443,0.012,0.81,0.017,1.085,0.018
		h0.801c0.275,0,0.642,0,1.085-0.018h0.136c0.461-0.014,0.993-0.031,1.582-0.059l0.17-0.008c0.597-0.029,1.243-0.068,1.923-0.117
		l0.215-0.018c0.687-0.053,1.401-0.117,2.13-0.198l0.222-0.024c0.729-0.085,1.467-0.184,2.198-0.302l0.236-0.04
		c0.723-0.12,1.43-0.259,2.117-0.42l0.235-0.057c0.333-0.082,0.66-0.167,0.976-0.261h0.015c0.317-0.093,0.62-0.194,0.91-0.299
		l0.209-0.077c0.279-0.105,0.551-0.215,0.807-0.33l0.025-0.012v4.758c-0.447,0.629-3.708,2.065-11.083,2.541
		c-0.222,0.023-0.444,0.033-0.682,0.045c-1.309,0.068-2.6,0.104-3.832,0.104c-0.585,0-1.155-0.008-1.711-0.02
		c-0.179,0-0.349-0.014-0.526-0.019c-0.368-0.012-0.74-0.022-1.094-0.038c-0.22-0.012-0.428-0.025-0.642-0.037
		c-0.298-0.018-0.599-0.033-0.887-0.054c-0.22-0.015-0.427-0.035-0.64-0.052c-0.267-0.021-0.542-0.043-0.8-0.067
		c-0.203-0.019-0.39-0.042-0.59-0.062c-0.252-0.027-0.511-0.054-0.754-0.082c-0.188-0.023-0.363-0.05-0.544-0.073
		c-0.237-0.031-0.478-0.062-0.705-0.096c-0.181-0.026-0.347-0.057-0.52-0.084c-0.211-0.033-0.425-0.065-0.625-0.102
		c-0.171-0.031-0.329-0.062-0.492-0.094c-0.188-0.035-0.379-0.072-0.558-0.108c-0.15-0.03-0.289-0.064-0.433-0.096
		c-0.173-0.04-0.351-0.078-0.514-0.117c-0.13-0.032-0.25-0.065-0.375-0.097c-0.157-0.043-0.32-0.082-0.467-0.131l-0.33-0.1
		c-0.137-0.042-0.276-0.084-0.402-0.131c-0.103-0.035-0.194-0.068-0.29-0.104s-0.231-0.082-0.334-0.122
		c-0.103-0.04-0.16-0.067-0.239-0.102c-0.079-0.034-0.192-0.082-0.277-0.122c-0.084-0.041-0.124-0.064-0.185-0.096
		c-0.061-0.033-0.153-0.081-0.216-0.12c-0.062-0.039-0.092-0.062-0.13-0.094c-0.038-0.031-0.108-0.075-0.149-0.112
		c-0.031-0.027-0.06-0.057-0.085-0.09c-0.029-0.024-0.055-0.051-0.078-0.08V39.357z M16.2,47.156l0.026,0.012
		c0.26,0.115,0.526,0.225,0.806,0.33l0.209,0.076c0.295,0.105,0.599,0.207,0.917,0.3h0.011c0.316,0.092,0.65,0.179,0.979,0.261
		l0.233,0.057c0.684,0.161,1.395,0.301,2.117,0.421l0.235,0.039c0.73,0.118,1.469,0.218,2.198,0.302l0.223,0.024
		c0.729,0.081,1.444,0.146,2.13,0.198l0.214,0.018c0.681,0.049,1.327,0.088,1.924,0.117l0.17,0.008
		c0.589,0.027,1.121,0.045,1.583,0.059h0.136c0.443,0.012,0.81,0.017,1.085,0.018h0.4c1.278,0,2.614-0.035,3.967-0.105
		c0.285-0.014,0.554-0.029,0.771-0.053c3.267-0.211,7.965-0.748,10.86-2.094v4.754c-0.421,0.625-3.67,2.07-11.084,2.549
		c-0.222,0.023-0.444,0.034-0.682,0.045c-1.309,0.07-2.6,0.104-3.832,0.104c-0.585,0-1.155-0.006-1.71-0.02
		c-0.18,0-0.35-0.013-0.527-0.018c-0.367-0.012-0.739-0.022-1.094-0.039c-0.219-0.011-0.428-0.025-0.642-0.037
		c-0.298-0.017-0.599-0.032-0.887-0.053c-0.22-0.016-0.426-0.035-0.639-0.053c-0.268-0.021-0.542-0.042-0.801-0.066
		c-0.203-0.02-0.39-0.043-0.59-0.062c-0.252-0.027-0.511-0.055-0.754-0.082c-0.188-0.023-0.364-0.049-0.544-0.072
		c-0.236-0.032-0.478-0.063-0.705-0.098c-0.18-0.025-0.347-0.055-0.52-0.082c-0.21-0.034-0.425-0.066-0.625-0.104
		c-0.171-0.029-0.329-0.062-0.493-0.094c-0.187-0.035-0.379-0.07-0.558-0.107c-0.15-0.031-0.288-0.064-0.433-0.096
		c-0.172-0.039-0.351-0.078-0.513-0.117c-0.129-0.033-0.251-0.064-0.376-0.098c-0.157-0.041-0.319-0.082-0.466-0.13l-0.33-0.101
		c-0.136-0.041-0.275-0.082-0.402-0.13c-0.103-0.034-0.193-0.069-0.29-0.104c-0.096-0.034-0.231-0.081-0.334-0.121
		c-0.103-0.041-0.16-0.068-0.24-0.102c-0.079-0.033-0.192-0.082-0.276-0.123c-0.084-0.039-0.123-0.062-0.185-0.096
		c-0.061-0.032-0.153-0.08-0.216-0.119s-0.092-0.062-0.13-0.094c-0.038-0.031-0.107-0.076-0.149-0.111
		c-0.031-0.028-0.061-0.059-0.086-0.092c-0.03-0.021-0.058-0.045-0.083-0.07V47.156z M47.401,59.697
		c-0.022,0.031-0.047,0.062-0.074,0.09c-0.85,0.612-1.82,1.035-2.847,1.24l-0.139,0.037c-0.17,0.045-0.346,0.092-0.532,0.138
		c-0.854,0.206-1.848,0.403-2.978,0.573l-0.295,0.043c-0.246,0.035-0.5,0.069-0.758,0.103c-0.232,0.03-0.469,0.059-0.712,0.086
		l-0.326,0.034c-0.754,0.08-1.559,0.15-2.422,0.207c-0.12,0.012-0.245,0.016-0.366,0.023l-0.449,0.027
		c-0.605,0.029-1.207,0.055-1.798,0.07h-0.022c-0.639,0.021-1.268,0.033-1.884,0.033c-0.585,0-1.155-0.007-1.71-0.02
		c-0.18,0-0.35-0.014-0.527-0.019c-0.367-0.012-0.739-0.022-1.094-0.039c-0.219-0.011-0.428-0.024-0.642-0.036
		c-0.298-0.018-0.599-0.033-0.887-0.054c-0.22-0.015-0.426-0.035-0.639-0.052c-0.268-0.021-0.542-0.043-0.801-0.067
		c-0.203-0.019-0.39-0.042-0.59-0.062c-0.252-0.027-0.511-0.054-0.754-0.082c-0.188-0.023-0.364-0.05-0.544-0.073
		c-0.236-0.031-0.478-0.062-0.705-0.096c-0.18-0.026-0.347-0.057-0.52-0.084c-0.21-0.033-0.425-0.065-0.625-0.102
		c-0.171-0.031-0.329-0.062-0.493-0.094c-0.187-0.035-0.379-0.072-0.558-0.108c-0.15-0.03-0.288-0.064-0.433-0.096
		c-0.172-0.04-0.351-0.078-0.513-0.117c-0.129-0.032-0.251-0.065-0.376-0.097c-0.157-0.043-0.319-0.082-0.466-0.131l-0.33-0.1
		c-0.136-0.041-0.275-0.084-0.402-0.131c-0.103-0.035-0.193-0.068-0.29-0.104s-0.231-0.082-0.334-0.122
		c-0.103-0.04-0.16-0.067-0.24-0.102c-0.079-0.034-0.192-0.082-0.276-0.122c-0.084-0.041-0.123-0.064-0.185-0.096
		c-0.061-0.033-0.153-0.081-0.216-0.12s-0.092-0.062-0.13-0.094c-0.038-0.031-0.107-0.075-0.149-0.112
		c-0.031-0.027-0.061-0.057-0.086-0.09c-0.03-0.024-0.058-0.051-0.083-0.08v-4.748l0.026,0.012c0.26,0.115,0.526,0.225,0.806,0.33
		l0.209,0.077c0.295,0.104,0.599,0.206,0.917,0.299h0.011c0.316,0.092,0.65,0.179,0.979,0.261l0.233,0.057
		c0.684,0.161,1.395,0.301,2.117,0.421l0.235,0.039c0.73,0.118,1.469,0.217,2.198,0.302l0.223,0.024
		c0.729,0.081,1.444,0.146,2.13,0.198l0.214,0.018c0.681,0.049,1.327,0.088,1.924,0.117l0.17,0.008
		c0.589,0.027,1.121,0.045,1.583,0.059h0.136c0.443,0.012,0.81,0.017,1.085,0.018h0.4c1.278,0,2.614-0.035,3.963-0.105
		c0.288-0.014,0.558-0.029,0.78-0.053c3.264-0.209,7.964-0.741,10.86-2.08V59.697z M83.801,62.4H50.005V15.607h33.795V62.4z"/>
	<path fill="#193052" d="M81.201,18.207H52.605v10.398h28.596V18.207z M78.602,26.006H55.205v-5.199h23.396V26.006z"/>
	<path fill="#193052" d="M60.404,31.205h-7.799v7.799h7.799V31.205z M57.805,36.404h-2.6v-2.6h2.6V36.404z"/>
	<path fill="#193052" d="M63.003,39.004h7.8v-7.799h-7.8V39.004z M65.603,33.805h2.601v2.6h-2.601V33.805z"/>
	<path fill="#193052" d="M73.402,39.004h7.799v-7.799h-7.799V39.004z M76.002,33.805h2.6v2.6h-2.6V33.805z"/>
	<path fill="#193052" d="M60.404,41.604h-7.799v7.799h7.799V41.604z M57.805,46.803h-2.6v-2.6h2.6V46.803z"/>
	<path fill="#193052" d="M63.003,49.402h7.8v-7.799h-7.8V49.402z M65.603,44.203h2.601v2.6h-2.601V44.203z"/>
	<path fill="#193052" d="M73.402,59.801h7.799V41.604h-7.799V59.801z M76.002,44.203h2.6v12.998h-2.6V44.203z"/>
	<path fill="#193052" d="M60.404,52.002h-7.799v7.799h7.799V52.002z M57.805,57.201h-2.6v-2.6h2.6V57.201z"/>
	<path fill="#193052" d="M63.003,59.801h7.8v-7.799h-7.8V59.801z M65.603,54.602h2.601v2.6h-2.601V54.602z"/>
	<path fill="#193052" d="M27.338,26.317c1.51,1.108,3.495,1.662,5.953,1.662c1.549,0,3.003-0.229,4.362-0.688v-2.285
		c-0.745,0.233-1.448,0.407-2.109,0.519c-0.662,0.113-1.335,0.169-2.019,0.169c-1.731,0-3.111-0.359-4.141-1.078
		c-1.03-0.718-1.722-1.904-2.077-3.557h7.984V19.32h-8.218c-0.026-0.381-0.039-0.783-0.039-1.208c0-0.458,0.021-0.939,0.065-1.441
		h8.191v-1.74h-7.919c0.381-1.532,1.09-2.644,2.129-3.336s2.423-1.039,4.154-1.039c1.385,0,2.718,0.178,3.999,0.532V8.805
		c-1.342-0.355-2.726-0.532-4.154-0.532c-2.449,0-4.44,0.547-5.972,1.642s-2.536,2.768-3.012,5.018h-2.609v1.74h2.363
		c-0.043,0.537-0.065,1.034-0.065,1.493c0,0.39,0.013,0.775,0.039,1.156h-2.336v1.739h2.531
		C24.86,23.457,25.828,25.21,27.338,26.317z"/>
</g>
</svg>
