<?xml version="1.0" encoding="utf-8"?>
<!-- Generator: Adobe Illustrator 16.0.0, SVG Export Plug-In . SVG Version: 6.00 Build 0)  -->
<!DOCTYPE svg PUBLIC "-//W3C//DTD SVG 1.1//EN" "http://www.w3.org/Graphics/SVG/1.1/DTD/svg11.dtd">
<svg version="1.1" id="Calque_1" xmlns="http://www.w3.org/2000/svg" xmlns:xlink="http://www.w3.org/1999/xlink" x="0px" y="0px"
	 width="100px" height="65px" viewBox="0 0 100 65" enable-background="new 0 0 100 65" xml:space="preserve">
<path fill="#193052" d="M75.659,20.543c1.039-1.042,1.039-2.728,0-3.77l-2.025-2.025c-1.042-1.04-2.728-1.04-3.77,0l-2.479,2.491
	c-3.815-3.207-8.445-5.292-13.376-6.022V8.26h1.412c1.493-0.02,2.698-1.226,2.718-2.717V2.678C58.14,1.212,56.888,0,55.422,0H44.604
	c-1.465,0-2.717,1.212-2.717,2.678v2.864c0.025,1.49,1.227,2.692,2.717,2.717h1.413v2.958C32.96,13.136,22.955,24.407,22.955,37.969
	C22.955,52.877,35.092,65,50,65c14.909,0,27.045-12.123,27.045-27.031c0.011-5.159-1.47-10.21-4.264-14.548L75.659,20.543z
	 M71.742,16.64l2.025,2.025l-2.545,2.544c-0.6-0.746-1.226-1.466-1.905-2.158L71.742,16.64z M44.551,5.595V2.665h10.925v2.931
	H44.551z M48.681,8.26h2.665v2.705c-0.533-0.026-0.906-0.026-1.333-0.026s-0.799,0.013-1.332,0.026V8.26z M50.013,62.336
	c-13.443,0-24.367-10.938-24.367-24.367c0-13.429,10.924-24.38,24.367-24.38S74.38,24.527,74.38,37.969
	C74.38,51.411,63.456,62.336,50.013,62.336z"/>
<path fill="#193052" d="M50.013,16.253H49.76c-11.697,0.133-21.196,9.565-21.449,21.236c-0.095,0.186-0.145,0.392-0.146,0.6
	c-0.003,0.219,0.052,0.435,0.16,0.626c0.399,11.511,9.806,20.783,21.369,20.943c0.062,0.011,0.124,0.016,0.187,0.013
	c0.054,0.003,0.107-0.002,0.16-0.013c11.964,0,21.69-9.726,21.69-21.689C71.729,25.992,61.99,16.253,50.013,16.253z M51.213,56.967
	v-2.479c0-0.735-0.597-1.332-1.333-1.332s-1.332,0.597-1.332,1.332v2.465c-9.339-0.719-16.813-8.18-17.519-17.519h2.332
	c0.736,0,1.332-0.597,1.332-1.333c0-0.735-0.596-1.332-1.332-1.332h-2.358c0.606-9.471,8.083-17.057,17.546-17.798v2.478
	c0,0.736,0.596,1.332,1.332,1.332s1.333-0.596,1.333-1.332v-2.491c9.569,0.617,17.194,8.242,17.812,17.812H66.4
	c-0.736,0-1.333,0.597-1.333,1.332c0,0.736,0.597,1.333,1.333,1.333h2.598C68.278,48.854,60.672,56.381,51.213,56.967z"/>
<path fill="#193052" d="M57.594,36.903h-6.248v-8.807c0-0.735-0.597-1.332-1.333-1.332s-1.332,0.597-1.332,1.332v10.152
	c-0.008,0.347,0.125,0.683,0.368,0.931s0.576,0.389,0.924,0.389h7.608c0.735,0.003,1.335-0.59,1.338-1.326
	C58.923,37.506,58.329,36.906,57.594,36.903z"/>
</svg>
