<?xml version="1.0" encoding="utf-8"?>
<!-- Generator: Adobe Illustrator 16.0.0, SVG Export Plug-In . SVG Version: 6.00 Build 0)  -->
<!DOCTYPE svg PUBLIC "-//W3C//DTD SVG 1.1//EN" "http://www.w3.org/Graphics/SVG/1.1/DTD/svg11.dtd">
<svg version="1.1" id="Calque_1" xmlns="http://www.w3.org/2000/svg" xmlns:xlink="http://www.w3.org/1999/xlink" x="0px" y="0px"
	 width="100px" height="65px" viewBox="0 0 100 65" enable-background="new 0 0 100 65" xml:space="preserve">
<g>
	<path fill="#193052" d="M98.201,31.255L80.578,0.73C80.318,0.28,79.833,0,79.312,0c-0.255,0-0.507,0.068-0.729,0.196L65.779,7.589
		c-0.338,0.194-0.58,0.51-0.681,0.886c-0.054,0.204-0.063,0.417-0.024,0.632l0.093,0.526h-3.083c-2.078,0-4.111,0.845-5.578,2.319
		l-3.68,3.699l-2.644-3.179c-1.499-1.804-3.705-2.839-6.051-2.839h-9.298l0.093-0.526c0.038-0.215,0.03-0.428-0.025-0.632
		c-0.101-0.377-0.343-0.692-0.681-0.886L21.417,0.196C21.195,0.067,20.943,0,20.689,0c-0.521,0-1.006,0.28-1.266,0.73L5.625,24.604
		c-0.013,0.036-0.024,0.062-0.037,0.087l-3.789,6.564c-0.195,0.338-0.247,0.731-0.146,1.108c0.1,0.371,0.348,0.694,0.68,0.886
		l12.805,7.394c0.333,0.191,0.737,0.244,1.108,0.146c0.376-0.101,0.691-0.343,0.886-0.681l0.4-0.691l5.75,3.393l-0.001,0.258
		c-0.007,1.229,0.435,2.412,1.244,3.332c0.788,0.896,1.874,1.482,3.057,1.651l0.381,0.054l0.004,0.385
		c0.013,1.193,0.456,2.347,1.247,3.246c0.792,0.902,1.878,1.489,3.059,1.654l0.381,0.054l0.005,0.386
		c0.014,1.194,0.456,2.346,1.244,3.242c0.789,0.898,1.875,1.484,3.06,1.652l0.381,0.054l0.004,0.385
		c0.014,1.196,0.456,2.349,1.244,3.247c0.95,1.08,2.323,1.7,3.768,1.7c1.181,0,2.327-0.418,3.228-1.179
		c0.032-0.025,0.052-0.042,0.071-0.059l3.428-3.035l0.284,0.434c0.191,0.293,0.414,0.566,0.661,0.814l2.428,2.43
		C53.418,64.472,54.694,65,56.055,65c1.359,0,2.637-0.528,3.596-1.486c0.863-0.865,1.387-2.015,1.472-3.238l0.027-0.389l0.39-0.027
		c1.223-0.086,2.373-0.609,3.238-1.473c0.863-0.864,1.387-2.014,1.473-3.238l0.027-0.389l0.389-0.027
		c1.224-0.086,2.373-0.608,3.237-1.473c0.864-0.863,1.388-2.014,1.474-3.238l0.026-0.389l0.388-0.027
		c1.225-0.086,2.375-0.609,3.239-1.473c1.425-1.425,1.872-3.562,1.14-5.445l-0.13-0.334l5.841-3.955l0.988,1.709
		c0.194,0.338,0.51,0.58,0.886,0.681c0.368,0.1,0.774,0.046,1.108-0.146l12.804-7.393C98.364,32.847,98.604,31.952,98.201,31.255z
		 M15.334,37.383L5.058,31.451l3.765-6.521c0.012-0.031,0.023-0.058,0.036-0.083L21.222,3.454l10.276,5.933L15.334,37.383z
		 M57.586,61.448c-0.408,0.408-0.953,0.634-1.531,0.634c-0.58,0-1.123-0.226-1.531-0.634l-2.429-2.429
		c-0.409-0.408-0.634-0.952-0.634-1.531c0-0.578,0.225-1.122,0.634-1.531c0.409-0.408,0.952-0.634,1.531-0.634
		c0.578,0,1.122,0.226,1.531,0.635l2.429,2.429c0.408,0.408,0.633,0.951,0.633,1.531C58.219,60.496,57.994,61.04,57.586,61.448z
		 M62.712,56.322c-0.408,0.408-0.952,0.633-1.53,0.633c-0.58,0-1.123-0.225-1.531-0.633l-2.43-2.43
		c-0.408-0.408-0.634-0.953-0.634-1.53c0-0.578,0.226-1.122,0.634-1.531c0.41-0.409,0.953-0.634,1.531-0.634
		s1.122,0.225,1.531,0.633l2.429,2.43C63.557,54.104,63.557,55.478,62.712,56.322z M67.839,51.194
		c-0.409,0.409-0.952,0.634-1.531,0.634s-1.122-0.225-1.53-0.634l-2.43-2.429c-0.408-0.408-0.634-0.953-0.634-1.531
		s0.226-1.121,0.634-1.531c0.409-0.408,0.953-0.633,1.531-0.633s1.123,0.225,1.531,0.633l2.429,2.43
		c0.408,0.408,0.634,0.952,0.634,1.531C68.473,50.242,68.247,50.786,67.839,51.194z M72.966,46.068
		c-0.408,0.408-0.952,0.633-1.531,0.633s-1.123-0.225-1.531-0.633l-2.429-2.43c-0.844-0.844-0.844-2.217,0-3.062
		c0.408-0.408,0.953-0.634,1.531-0.634c0.58,0,1.123,0.226,1.531,0.634l2.429,2.429C73.811,43.85,73.811,45.224,72.966,46.068z
		 M74.178,40.089l-1.576-1.576c-0.959-0.958-2.236-1.487-3.596-1.487c-1.36,0-2.637,0.529-3.596,1.487
		c-0.864,0.864-1.387,2.015-1.473,3.238l-0.027,0.388l-0.389,0.027c-1.224,0.086-2.373,0.609-3.238,1.474
		c-0.863,0.864-1.387,2.014-1.473,3.239l-0.027,0.389l-0.389,0.026c-1.223,0.085-2.373,0.608-3.238,1.472
		c-0.863,0.865-1.387,2.016-1.472,3.238l-0.027,0.389l-0.39,0.028c-1.224,0.085-2.374,0.608-3.238,1.472
		c-0.627,0.627-1.08,1.411-1.31,2.268l-0.035,0.131l-4.952,4.383c-0.379,0.332-0.869,0.517-1.377,0.517
		c-0.603,0-1.175-0.259-1.572-0.71c-0.761-0.867-0.676-2.191,0.19-2.952c0.11-0.103,3.654-3.538,5.512-5.339
		c0.273-0.271,0.427-0.637,0.429-1.027c0.001-0.39-0.148-0.757-0.423-1.033c-0.55-0.555-1.51-0.56-2.065-0.011
		c-1.672,1.658-4.862,4.822-4.964,4.927l-0.051,0.053l-0.067,0.036c-0.114,0.059-0.211,0.124-0.298,0.2
		c-0.381,0.336-0.871,0.521-1.379,0.521c-0.603,0-1.176-0.259-1.573-0.71c-0.368-0.42-0.551-0.958-0.515-1.516
		c0.036-0.559,0.287-1.068,0.706-1.438c0.138-0.121,0.252-0.27,0.338-0.441l0.032-0.063l0.051-0.05l5.221-5.232
		c0.568-0.57,0.567-1.496-0.002-2.064c-0.552-0.552-1.514-0.551-2.064,0.002l-5.543,5.555c-0.066,0.066-0.128,0.142-0.181,0.223
		l-0.061,0.092l-0.097,0.052c-0.345,0.188-0.737,0.276-1.135,0.253c-0.558-0.037-1.068-0.288-1.437-0.708
		c-0.369-0.42-0.553-0.958-0.517-1.515c0.036-0.559,0.287-1.068,0.707-1.438l0.062-0.059l6.064-6.074
		c0.568-0.57,0.567-1.496-0.002-2.064c-0.552-0.551-1.514-0.551-2.064,0.002l-5.992,6.004c-0.9,0.762-2.226,0.627-2.946-0.193
		c-0.761-0.865-0.675-2.189,0.191-2.951c0.103-0.096,3.52-3.387,5.312-5.113c0.284-0.271,0.445-0.635,0.454-1.023
		c0.01-0.391-0.133-0.76-0.402-1.043c-0.538-0.564-1.499-0.588-2.063-0.051c-2.191,2.109-5.509,5.309-5.661,5.467l-0.245,0.258
		l-0.311-0.176l-4.999-2.951l14.049-24.334h11.09c1.476,0,2.863,0.651,3.806,1.786l7.722,9.291c0.525,0.632,0.721,1.453,0.54,2.253
		s-0.713,1.457-1.459,1.8c-0.962,0.443-2.13,0.25-2.897-0.478l-8.28-7.846c-0.566-0.536-1.527-0.51-2.063,0.056
		c-0.268,0.283-0.41,0.654-0.4,1.043c0.011,0.39,0.172,0.752,0.456,1.021l0.776,0.734l-0.149,0.298
		c-1.582,3.152-4.986,5.113-8.539,4.843c-0.079-0.006-0.117-0.007-0.154-0.007c-0.757,0-1.395,0.592-1.453,1.349
		c-0.029,0.389,0.094,0.766,0.348,1.062s0.608,0.475,0.997,0.505c0.329,0.025,0.622,0.036,0.911,0.036
		c4.005,0,7.823-2.117,9.962-5.523l0.291-0.464l5.29,5.013c1.037,0.982,2.387,1.523,3.801,1.523c0.805,0,1.588-0.172,2.326-0.513
		c1.577-0.726,2.701-2.114,3.086-3.807c0.383-1.693-0.033-3.43-1.143-4.765l-3.205-3.857l3.875-3.895
		c0.923-0.927,2.201-1.458,3.509-1.458h4.876l13.457,23.31L74.178,40.089z M84.667,37.383L68.503,9.387l10.276-5.933l16.164,27.997
		L84.667,37.383z"/>
</g>
</svg>
