<?xml version="1.0" encoding="utf-8"?>
<!-- Generator: Adobe Illustrator 16.0.0, SVG Export Plug-In . SVG Version: 6.00 Build 0)  -->
<!DOCTYPE svg PUBLIC "-//W3C//DTD SVG 1.1//EN" "http://www.w3.org/Graphics/SVG/1.1/DTD/svg11.dtd">
<svg version="1.1" id="Calque_1" xmlns="http://www.w3.org/2000/svg" xmlns:xlink="http://www.w3.org/1999/xlink" x="0px" y="0px"
	 width="100px" height="65px" viewBox="0 0 100 65" enable-background="new 0 0 100 65" xml:space="preserve">
<g>
	<path fill="#193052" d="M40.105,31.931c-2.502-2.826-5.839-4.382-9.397-4.382c-3.558,0-6.895,1.556-9.396,4.382
		c-5.083,5.743-5.083,15.083,0,20.826l9.396,10.615l9.396-10.615C45.188,47.015,45.188,37.674,40.105,31.931z M38.455,51.296
		l-7.746,8.751l-7.747-8.751c-4.37-4.936-4.37-12.968,0-17.903c2.077-2.347,4.829-3.64,7.746-3.64c2.917,0,5.67,1.292,7.746,3.64
		C42.824,38.328,42.824,46.359,38.455,51.296z"/>
	<path fill="#193052" d="M70.658,27.005l7.123-8.029c3.832-4.319,3.832-11.346,0-15.665C75.886,1.176,73.355,0,70.657,0
		s-5.229,1.176-7.123,3.312c-3.833,4.319-3.833,11.346,0,15.665L70.658,27.005z M65.183,4.775c1.471-1.659,3.415-2.571,5.475-2.571
		c2.061,0,4.004,0.912,5.476,2.571c3.116,3.512,3.116,9.227,0,12.738l-5.475,6.172l-5.476-6.172
		C62.066,14.001,62.066,8.287,65.183,4.775z"/>
	<path fill="#193052" d="M74.908,60.075c-0.594-0.134-1.184,0.239-1.316,0.833c-0.127,0.562-0.373,1.079-0.731,1.534
		c-0.375,0.479-0.294,1.171,0.186,1.547c0.203,0.159,0.442,0.236,0.68,0.236c0.327,0,0.65-0.145,0.867-0.422
		c0.556-0.705,0.952-1.538,1.148-2.41C75.875,60.798,75.502,60.209,74.908,60.075z"/>
	<path fill="#193052" d="M52.198,34.16c-0.478-0.001-0.941-0.086-1.38-0.253c-0.564-0.215-1.204,0.068-1.423,0.637
		c-0.216,0.568,0.069,1.206,0.637,1.423c0.69,0.262,1.416,0.396,2.164,0.397h0.393c0.609,0,1.103-0.492,1.103-1.102
		s-0.493-1.103-1.103-1.103H52.198z"/>
	<path fill="#193052" d="M49.582,27.192c0.199,0,0.4-0.054,0.582-0.167c0.488-0.304,1.028-0.49,1.602-0.554
		c0.605-0.067,1.042-0.612,0.976-1.217s-0.607-1.037-1.217-0.975c-0.905,0.1-1.756,0.394-2.527,0.875
		c-0.517,0.322-0.674,1.001-0.352,1.519C48.854,27.008,49.214,27.192,49.582,27.192z"/>
	<path fill="#193052" d="M36.847,63.913h-2.204c-0.609,0-1.102,0.493-1.102,1.103s0.492,1.102,1.102,1.102h2.204
		c0.609,0,1.102-0.492,1.102-1.102S37.455,63.913,36.847,63.913z"/>
	<path fill="#193052" d="M56.604,44.078c-0.095,0-0.188,0.002-0.282,0.007c-0.608,0.024-1.08,0.537-1.056,1.146
		c0.023,0.593,0.513,1.057,1.1,1.057c0.016,0,0.031,0,0.047-0.001l2.158-0.004c0.609,0,1.103-0.493,1.103-1.103
		s-0.493-1.102-1.103-1.102H56.604z"/>
	<path fill="#193052" d="M56.053,26.447h2.204c0.609,0,1.102-0.493,1.102-1.102s-0.492-1.102-1.102-1.102h-2.204
		c-0.609,0-1.102,0.492-1.102,1.102S55.443,26.447,56.053,26.447z"/>
	<path fill="#193052" d="M69.59,44.078c-0.609,0-1.102,0.492-1.102,1.102s0.492,1.103,1.102,1.103h2.204
		c0.609,0,1.103-0.493,1.103-1.103s-0.493-1.102-1.103-1.102H69.59z"/>
	<path fill="#193052" d="M73.527,35.263c0-0.609-0.492-1.103-1.102-1.103h-2.204c-0.609,0-1.103,0.493-1.103,1.103
		s0.493,1.102,1.103,1.102h2.204C73.034,36.364,73.527,35.872,73.527,35.263z"/>
	<path fill="#193052" d="M62.979,46.282h2.204c0.609,0,1.102-0.493,1.102-1.103s-0.492-1.102-1.102-1.102h-2.204
		c-0.609,0-1.103,0.492-1.103,1.102S62.37,46.282,62.979,46.282z"/>
	<path fill="#193052" d="M64.868,26.447c0.609,0,1.102-0.493,1.102-1.102s-0.492-1.102-1.102-1.102h-2.204
		c-0.609,0-1.102,0.492-1.102,1.102s0.492,1.102,1.102,1.102H64.868z"/>
	<path fill="#193052" d="M56.998,34.16c-0.609,0-1.102,0.493-1.102,1.103s0.492,1.102,1.102,1.102h2.204
		c0.609,0,1.102-0.492,1.102-1.102s-0.492-1.103-1.102-1.103H56.998z"/>
	<path fill="#193052" d="M66.916,35.263c0-0.609-0.493-1.103-1.103-1.103H63.61c-0.61,0-1.103,0.493-1.103,1.103
		S63,36.364,63.61,36.364h2.203C66.422,36.364,66.916,35.872,66.916,35.263z"/>
	<path fill="#193052" d="M82.426,39.265c-0.097-0.602-0.664-1.013-1.263-0.913c-0.602,0.096-1.011,0.662-0.914,1.263
		c0.031,0.196,0.049,0.396,0.047,0.608c0,0.37-0.053,0.735-0.156,1.089c-0.171,0.584,0.163,1.196,0.748,1.367
		c0.104,0.029,0.207,0.044,0.31,0.044c0.477,0,0.917-0.311,1.058-0.792c0.162-0.555,0.245-1.129,0.245-1.7
		C82.502,39.913,82.478,39.588,82.426,39.265z"/>
	<path fill="#193052" d="M63.294,63.913H61.09c-0.609,0-1.103,0.493-1.103,1.103s0.493,1.102,1.103,1.102h2.204
		c0.609,0,1.102-0.492,1.102-1.102S63.902,63.913,63.294,63.913z"/>
	<path fill="#193052" d="M56.682,63.913h-2.204c-0.609,0-1.102,0.493-1.102,1.103s0.492,1.102,1.102,1.102h2.204
		c0.609,0,1.103-0.492,1.103-1.102S57.29,63.913,56.682,63.913z"/>
	<path fill="#193052" d="M68.805,55.098c0-0.609-0.493-1.102-1.103-1.102h-2.203c-0.609,0-1.103,0.492-1.103,1.102
		s0.493,1.102,1.103,1.102h2.203C68.311,56.199,68.805,55.707,68.805,55.098z"/>
	<path fill="#193052" d="M62.192,55.098c0-0.609-0.492-1.102-1.102-1.102h-2.204c-0.609,0-1.102,0.492-1.102,1.102
		s0.492,1.102,1.102,1.102h2.204C61.699,56.199,62.192,55.707,62.192,55.098z"/>
	<path fill="#193052" d="M69.827,63.913H67.7c-0.609,0-1.102,0.493-1.102,1.103s0.492,1.102,1.102,1.102l2.172-0.001l0.032-1.102
		v1.102c0.609,0,1.063-0.492,1.063-1.102C70.968,64.406,70.437,63.913,69.827,63.913z"/>
	<path fill="#193052" d="M73.726,58.094c0.238,0,0.479-0.077,0.68-0.235c0.479-0.377,0.562-1.07,0.186-1.548
		c-0.555-0.704-1.27-1.285-2.07-1.684c-0.548-0.272-1.207-0.048-1.478,0.496c-0.271,0.546-0.049,1.207,0.495,1.478
		c0.511,0.253,0.967,0.624,1.319,1.073C73.075,57.949,73.398,58.094,73.726,58.094z"/>
	<path fill="#193052" d="M77.929,43.779c-0.473,0.198-0.973,0.299-1.49,0.299h-0.236c-0.609,0-1.103,0.492-1.103,1.102
		s0.493,1.103,1.103,1.103h0.236c0.812,0,1.6-0.159,2.342-0.471c0.562-0.236,0.825-0.882,0.59-1.442
		C79.136,43.809,78.485,43.544,77.929,43.779z"/>
	<path fill="#193052" d="M47.827,32.898c0.578-0.19,0.894-0.812,0.703-1.392c-0.126-0.387-0.191-0.791-0.191-1.199
		c0.001-0.167,0.011-0.333,0.031-0.495c0.076-0.604-0.352-1.156-0.956-1.231c-0.622-0.069-1.155,0.354-1.23,0.955
		c-0.031,0.249-0.048,0.503-0.049,0.765c0,0.648,0.102,1.285,0.301,1.893c0.153,0.465,0.584,0.759,1.047,0.759
		C47.598,32.954,47.714,32.938,47.827,32.898z"/>
	<path fill="#193052" d="M43.458,63.913h-2.204c-0.609,0-1.102,0.493-1.102,1.103s0.493,1.102,1.102,1.102h2.204
		c0.609,0,1.102-0.492,1.102-1.102S44.066,63.913,43.458,63.913z"/>
	<path fill="#193052" d="M54.542,55.752c0.419,0,0.817-0.239,1.003-0.644c0.252-0.554,0.01-1.207-0.544-1.46
		c-0.517-0.236-0.984-0.593-1.353-1.031c-0.393-0.466-1.087-0.526-1.553-0.135s-0.527,1.087-0.135,1.553
		c0.577,0.687,1.312,1.246,2.124,1.617C54.233,55.719,54.389,55.752,54.542,55.752z"/>
	<path fill="#193052" d="M79.473,34.974c-0.787-0.456-1.646-0.724-2.554-0.796c-0.604-0.044-1.137,0.405-1.185,1.013
		c-0.047,0.607,0.406,1.138,1.013,1.185c0.575,0.046,1.121,0.216,1.62,0.505c0.174,0.102,0.365,0.149,0.552,0.149
		c0.381,0,0.751-0.197,0.955-0.549C80.179,35.954,79.999,35.28,79.473,34.974z"/>
	<path fill="#193052" d="M50.07,63.913h-2.204c-0.609,0-1.102,0.493-1.102,1.103s0.492,1.102,1.102,1.102h2.204
		c0.609,0,1.102-0.492,1.102-1.102S50.679,63.913,50.07,63.913z"/>
	<path fill="#193052" d="M52.815,49.41c0.108-0.566,0.338-1.09,0.682-1.557c0.36-0.489,0.256-1.18-0.234-1.541
		c-0.49-0.358-1.18-0.255-1.541,0.235c-0.538,0.733-0.9,1.557-1.072,2.448c-0.114,0.598,0.277,1.175,0.875,1.29
		c0.069,0.014,0.141,0.021,0.209,0.021C52.251,50.304,52.713,49.938,52.815,49.41z"/>
	<path fill="#193052" d="M70.929,16.529c3.342,0,6.062-2.72,6.062-6.061c0-3.341-2.72-6.061-6.062-6.061
		c-3.341,0-6.061,2.72-6.061,6.061C64.868,13.81,67.588,16.529,70.929,16.529z M70.929,6.612c2.127,0,3.857,1.73,3.857,3.857
		c0,2.126-1.73,3.856-3.857,3.856c-2.126,0-3.856-1.73-3.856-3.856C67.072,8.342,68.804,6.612,70.929,6.612z"/>
	<path fill="#193052" d="M30.708,34.16c-3.646,0-6.611,2.966-6.611,6.612s2.965,6.611,6.611,6.611c3.646,0,6.612-2.965,6.612-6.611
		S34.354,34.16,30.708,34.16z M30.708,45.18c-2.431,0-4.408-1.977-4.408-4.407s1.977-4.408,4.408-4.408
		c2.431,0,4.408,1.978,4.408,4.408S33.139,45.18,30.708,45.18z"/>
</g>
</svg>
